<svg width="551" height="518" viewBox="0 0 551 518" fill="none"
    xmlns="http://www.w3.org/2000/svg">
    <mask id="mask0_164_5520" style="mask-type:luminance" maskUnits="userSpaceOnUse" x="66" y="281" width="323" height="237">
        <path d="M66.582 281.331H388.102V517.709H66.582V281.331Z" fill="white"/>
    </mask>
    <g mask="url(#mask0_164_5520)">
        <path d="M255.377 318.041C255.233 317.491 255.285 316.968 255.508 316.458C255.743 315.947 256.109 315.555 256.607 315.306C256.633 315.202 256.672 315.097 256.724 314.992C258.229 312.781 259.746 310.583 261.251 308.372C261.827 307.496 262.572 306.803 263.501 306.305C263.645 305.926 263.881 305.612 264.221 305.39C264.875 304.958 265.49 304.513 266.105 304.042C266.235 303.584 266.51 303.205 266.903 302.93C267.007 302.865 267.099 302.799 267.177 302.721C267.204 302.708 267.23 302.681 267.243 302.668C267.413 302.524 267.583 302.381 267.753 302.224C268.067 301.923 268.355 301.596 268.643 301.269C268.813 301.085 268.97 300.889 269.127 300.693C269.192 300.614 269.258 300.536 269.323 300.457C269.598 300.091 269.872 299.725 270.147 299.345C271.024 298.076 271.979 296.873 273.038 295.735L275.917 290.959C277.212 288.827 278.965 286.603 279.436 284.104C279.567 283.633 279.854 283.28 280.273 283.044C280.692 282.809 281.137 282.743 281.608 282.874C281.987 282.979 282.275 283.188 282.497 283.515C282.589 283.528 282.68 283.555 282.772 283.594C284.368 284.418 285.886 285.36 287.325 286.433C288.123 287.021 288.895 287.636 289.64 288.29C290.177 288.735 290.635 289.246 290.988 289.847L291.132 289.913C291.433 290.07 291.642 290.305 291.773 290.619C291.864 290.632 291.943 290.658 292.021 290.698C292.427 290.959 292.689 291.313 292.819 291.784C292.937 292.241 292.885 292.686 292.649 293.118C290.7 297.632 286.998 300.758 283.544 304.094C283.256 304.395 282.981 304.709 282.693 305.01C282.406 305.337 282.131 305.664 281.843 305.978C280.967 306.986 280.064 307.954 279.187 308.948C279.056 309.118 278.913 309.275 278.795 309.445C278.638 309.668 278.455 309.838 278.245 309.995C276.78 311.617 275.328 313.265 273.85 314.875C273.64 315.11 273.379 315.267 273.065 315.346C273.012 315.385 272.973 315.437 272.921 315.476C272.895 315.555 272.881 315.62 272.842 315.699C272.502 316.183 272.11 316.601 271.639 316.968C270.932 317.648 270.213 318.328 269.506 319.009L266.589 321.795C265.699 322.711 264.809 323.627 263.92 324.53C263.58 324.87 263.161 325.053 262.677 325.053C262.415 325.053 262.154 325.001 261.918 324.87C261.329 324.844 260.885 324.569 260.584 324.046C259.877 322.96 259.04 321.978 258.072 321.115C257.169 320.252 255.743 319.283 255.377 318.041ZM266.065 384.632H112.893C106.09 384.632 101.825 390.048 103.356 396.72L118.048 460.341C115.431 460.498 112.815 460.524 110.198 460.407L95.8201 458.104C95.7678 458.078 95.7155 458.052 95.6631 458.039C88.8601 456.822 82.3973 454.585 76.2746 451.34C75.6597 450.922 74.9794 450.778 74.2468 450.895C73.5926 451.065 73.1871 451.471 73.017 452.138C72.1666 457.332 70.963 462.447 69.4192 467.484C69.2753 467.877 69.2884 468.256 69.4585 468.636C69.6286 469.015 69.9033 469.277 70.2827 469.434C70.4659 469.905 70.7275 470.323 71.0677 470.703C71.2901 470.951 71.5517 471.161 71.8265 471.357C72.9254 472.299 74.0244 473.228 75.2018 474.065C76.6278 475.046 78.1323 475.831 79.7415 476.446C82.8683 477.728 86.0343 478.905 89.1872 480.135C89.4489 480.227 89.7367 480.279 90.0245 480.292C92.6149 481.247 95.2576 482.019 97.9526 482.608C100.53 483.21 103.133 483.563 105.776 483.668C108.066 483.982 110.355 484.112 112.658 484.073C114.712 484.021 116.739 483.759 118.741 483.275C120.193 482.974 121.554 482.464 122.849 481.731C123.438 484.112 124.04 486.48 124.628 488.861L131.026 516.597H308.846L281.176 396.72C280.731 395.032 280.025 393.462 279.083 392.01C278.128 390.545 276.976 389.276 275.616 388.19C274.255 387.091 272.751 386.254 271.128 385.639C269.493 385.037 267.805 384.697 266.065 384.632ZM304.62 498.137L308.846 516.597H385.707V498.137H304.62Z" fill="white"/>
    </g>
    <mask id="mask1_164_5520" style="mask-type:luminance" maskUnits="userSpaceOnUse" x="0" y="38" width="551" height="460">
        <path d="M0 38.5147H550.101V497.351H0V38.5147Z" fill="white"/>
    </mask>
    <g mask="url(#mask1_164_5520)">
        <path d="M545.11 252.848C541.944 268.429 536.776 283.317 529.62 297.512C522.608 311.445 513.555 323.887 502.461 334.837C501.649 335.635 500.393 334.392 501.218 333.594C503.847 331.004 506.385 328.322 508.806 325.522C518.84 313.774 526.847 300.77 532.826 286.51C538.987 271.831 543.2 256.616 545.463 240.851C547.792 224.746 548.289 208.576 546.942 192.353C545.594 176.131 542.428 160.261 537.47 144.758C532.616 129.583 525.879 115.283 517.27 101.873C508.845 88.7645 498.601 77.3041 486.526 67.479C472.383 56.097 455.69 47.3055 437.767 43.9432C432.298 42.9489 426.777 42.4518 421.204 42.4387C415.644 42.4387 410.123 42.9358 404.654 43.9432C399.173 44.9375 393.835 46.4158 388.615 48.3652C383.408 50.3276 378.423 52.7348 373.648 55.5999C356.327 65.8698 343.309 81.569 329.18 95.6068C315.783 108.912 300.464 122.335 281.389 126.116C280.277 126.338 279.806 124.637 280.918 124.415C285.497 123.499 289.906 122.06 294.145 120.085C312.303 111.685 326.21 96.2217 339.921 82.1185C346.449 75.1062 353.396 68.5387 360.749 62.4029C369.553 55.299 379.287 49.8435 389.923 45.9972C400.442 42.2948 411.274 40.5286 422.421 40.6856C433.567 40.8426 444.347 42.9227 454.761 46.9261C470.342 53.0749 484.158 61.9842 496.207 73.6278C507.55 84.5257 517.008 96.8627 524.61 110.652C532.459 124.873 538.425 139.852 542.467 155.591C546.602 171.486 548.891 187.631 549.349 204.049C549.846 220.481 548.433 236.743 545.11 252.848ZM454.473 434.514C454.709 435.443 454.578 436.333 454.107 437.17C453.623 438.02 452.929 438.57 452.001 438.858C447.278 440.637 442.555 442.573 437.727 444.104C436.484 444.653 435.215 445.15 433.999 445.687C430.048 447.453 426.084 449.18 422.12 450.881C413.878 454.413 405.609 457.841 397.289 461.164C396.294 461.504 395.366 461.373 394.515 460.745C393.586 461.046 392.644 461.294 391.676 461.451C391.428 461.765 391.153 462.04 390.839 462.276C390.303 462.629 389.714 462.851 389.073 462.943C388.445 463.034 387.817 462.995 387.202 462.799C386.587 462.603 386.051 462.289 385.58 461.844C385.109 461.399 384.755 460.889 384.52 460.287C384.494 460.797 384.258 461.177 383.8 461.412C383.382 461.621 382.95 461.805 382.505 461.962C382.074 462.132 381.642 462.289 381.21 462.459C380.634 462.668 380.059 462.864 379.483 463.061C380.216 466.685 380.857 470.308 381.354 473.958C381.485 474.521 381.275 474.887 380.726 475.044C380.608 475.071 380.477 475.084 380.36 475.057C379.928 475.201 379.601 475.084 379.365 474.691C379.221 474.456 379.078 474.233 378.921 473.998C378.554 474.233 378.24 474.168 377.992 473.801C377.455 473.147 376.867 472.546 376.291 471.931C375.925 471.525 375.558 471.146 375.192 470.753C375.127 470.701 375.061 470.649 374.996 470.583C374.315 469.994 373.57 469.458 372.863 468.922L368.978 465.978L367.905 465.18L365.746 463.702C363.365 462.629 360.984 461.543 358.59 460.496C354.652 458.769 350.426 456.415 346.096 455.891C344.997 455.826 344.186 455.303 343.676 454.321C343.453 453.994 343.309 453.628 343.257 453.236C342.943 451.09 342.629 448.931 342.315 446.773C341.923 446.262 341.7 445.7 341.622 445.072C340.889 439.525 340.091 434.004 339.267 428.47C338.992 428.156 338.809 427.777 338.731 427.371C335.787 414.197 333.55 400.905 332.032 387.495C331.195 383.295 330.397 379.096 329.638 374.896C329.573 374.739 329.533 374.582 329.507 374.425C326.891 359.053 324.274 343.668 321.658 328.296C321.605 327.956 321.605 327.615 321.671 327.288C320.506 321.048 319.407 314.794 318.308 308.528C318.256 308.201 318.256 307.874 318.308 307.547C317.537 304.642 317 301.699 316.686 298.703C316.634 297.852 316.961 297.172 317.654 296.675C317.026 296.701 316.398 296.688 315.757 296.662C314.894 296.609 314.017 296.544 313.141 296.544C311.702 296.819 310.263 297.12 308.837 297.512C308.693 297.538 308.562 297.591 308.431 297.617C308.562 297.669 308.693 297.734 308.823 297.8C309.216 298.062 309.582 298.362 309.909 298.703L309.922 298.716C309.936 298.729 309.949 298.742 309.949 298.755C309.962 298.768 309.975 298.781 309.988 298.781C310.079 298.899 310.171 299.017 310.249 299.147C310.42 299.318 310.563 299.514 310.694 299.723C310.707 299.736 310.707 299.749 310.72 299.762C310.891 300.116 311.048 300.482 311.178 300.848C311.191 300.887 311.205 300.914 311.205 300.953C311.414 301.725 311.414 302.51 311.205 303.295C311.074 303.622 310.93 303.936 310.799 304.263C311.126 315.292 314.109 326.124 316.477 336.852C318.871 347.632 321.501 358.268 322.207 369.31C324.156 375.236 325.857 381.254 327.231 387.338C328.094 391.119 328.84 394.926 329.468 398.759C330.004 402.004 330.122 405.562 331.43 408.623C332.255 410.298 332.961 412.038 333.55 413.817C333.968 415.557 334.23 417.323 334.361 419.116C334.727 422.949 335.067 426.769 335.63 430.576C336.206 434.553 336.925 438.517 337.775 442.442C338.613 446.367 340.039 450.423 339.659 454.478C339.659 455.054 339.529 455.617 339.306 456.153C339.084 456.689 338.757 457.16 338.351 457.566C337.932 457.984 337.462 458.298 336.925 458.534C336.389 458.756 335.839 458.874 335.251 458.887C333.026 458.887 330.619 456.859 330.842 454.478C331.195 450.684 329.664 446.786 328.905 443.109C328.134 439.315 327.466 435.495 326.93 431.649C326.38 427.737 325.962 423.812 325.609 419.875C325.53 418.239 325.229 416.643 324.719 415.073C324.156 413.569 323.345 412.169 322.783 410.651C321.566 407.381 321.409 403.704 320.82 400.277C320.179 396.457 319.42 392.663 318.544 388.882C317.183 383.021 315.548 377.251 313.664 371.534C313.651 371.495 313.625 371.442 313.612 371.39C313.167 370.056 312.722 368.708 312.251 367.374C311.846 366.065 312.055 364.862 312.866 363.776C310.42 343.55 302.334 324.096 301.942 303.596C301.942 303.216 301.981 302.837 302.06 302.457C302.02 302.209 301.994 301.96 301.994 301.699C301.994 300.887 302.204 300.129 302.609 299.435C302.622 299.409 302.635 299.396 302.648 299.383H302.622C301.249 299.841 299.836 300.43 298.397 300.757C292.784 304.014 287.446 307.664 282.37 311.707C280.473 313.774 278.589 315.828 276.719 317.921C275.293 319.465 273.997 321.126 272.833 322.879C271.812 324.672 270.648 326.359 269.353 327.969C269.34 327.982 269.327 327.982 269.314 327.995C268.346 329.735 267.351 331.462 266.226 333.11C265.153 334.667 264.211 336.315 263.413 338.029C263.4 338.055 263.361 338.068 263.348 338.108C262.079 340.777 260.614 343.328 258.965 345.774L257.749 347.724C256.951 349.437 256.139 351.151 255.276 352.839C253.314 356.724 251.43 360.688 249.31 364.509C249.271 364.77 249.193 365.019 249.036 365.241C248.722 365.725 248.421 366.222 248.12 366.707C247.296 368.29 246.38 369.833 245.385 371.312C243.397 376.139 239.76 382.942 239.708 382.955C238.923 383.112 196.77 382.955 196.77 382.955C182.732 369.493 172.397 353.624 165.777 335.334C165.332 336.302 164.874 337.27 164.377 338.212C163.278 341.156 162.062 344.073 160.78 346.978C160.269 348.404 159.746 349.817 159.197 351.243C159.197 351.531 159.144 351.805 159.013 352.067C158.242 353.663 157.548 355.298 156.933 356.96C156.855 357.208 156.763 357.444 156.685 357.679C156.659 357.745 156.619 357.797 156.593 357.85C154.408 363.92 152.969 370.265 150.405 376.205C150.078 377.303 149.685 378.389 149.228 379.449L149.215 379.475C149.149 379.619 149.097 379.763 149.031 379.894C148.94 380.09 148.822 380.247 148.665 380.378C148.652 380.417 148.626 380.456 148.613 380.496C148.717 380.81 148.744 381.137 148.678 381.477C148.547 381.987 148.233 382.353 147.723 382.563C147.383 382.955 146.951 383.099 146.441 383.021C142.176 382.72 137.898 382.68 133.633 382.89L120.537 383.138C120.498 383.138 120.472 383.112 120.446 383.112C119.02 383.322 117.62 383.269 116.22 382.968C114.872 382.759 113.525 382.746 112.164 382.929C110.882 383.099 109.613 383.387 108.37 383.779C108.148 384.08 107.86 384.29 107.507 384.407C107.271 384.473 107.023 384.551 106.787 384.643L106.774 384.656C106.513 384.905 106.238 385.153 105.989 385.428C105.963 385.467 105.924 385.506 105.885 385.546L103.203 389.575C103.033 390.125 102.889 390.687 102.797 391.263C103.7 395.593 104.485 399.937 105.217 404.306C105.27 404.398 105.322 404.502 105.374 404.607C107.049 410.481 108.318 416.434 109.195 422.465C109.273 422.779 109.338 423.08 109.417 423.381C109.613 423.603 109.757 423.852 109.809 424.14C112.269 434.854 114.545 445.648 117.581 456.218C117.816 456.912 117.646 457.487 117.07 457.932C117.057 458.024 117.044 458.102 117.018 458.181V458.207H117.005C116.848 458.534 116.573 458.717 116.207 458.73C114.192 458.887 112.19 458.809 110.202 458.482L109.77 458.495C109.626 458.547 109.482 458.586 109.325 458.626C108.292 458.822 107.245 458.809 106.212 458.586C105.701 458.482 105.191 458.338 104.681 458.168C103.922 458.076 103.176 457.945 102.444 457.762C102.339 457.762 102.235 457.762 102.143 457.749C98.2966 457.173 94.5027 456.349 90.7741 455.276C88.7724 454.727 86.8231 454.007 84.9523 453.118C79.4576 451.94 74.0937 449.507 70.4174 445.15C70.2735 444.967 70.1558 444.771 70.0773 444.549L69.0306 444.235C74.3161 399.923 84.2851 356.685 98.9246 314.533C110.738 280.492 109.482 241.95 131.815 212.004C139.887 201.184 151.543 190.378 164.364 185.55C165.228 185.027 166.17 184.713 167.177 184.608C167.766 184.425 168.341 184.242 168.943 184.085L168.721 184.674C170.094 185.001 171.246 185.72 172.148 186.806C173.875 188.756 175.864 190.391 178.088 191.712C179.593 192.602 180.848 193.753 181.856 195.179C182.615 196.291 183.23 197.508 183.975 198.633C184.616 199.627 185.323 200.569 186.082 201.472C186.945 202.519 187.874 203.513 188.829 204.468C189.13 204.769 189.365 205.122 189.535 205.501L208.518 217.799C208.571 217.825 208.636 217.825 208.688 217.852C208.806 217.59 209.002 217.446 209.29 217.407C209.578 217.367 209.814 217.459 209.984 217.695C214.484 223.215 218.854 228.841 223.093 234.558C225.853 228.121 227.881 221.475 229.176 214.607C229.241 214.293 229.411 214.097 229.699 213.992C230 213.901 230.262 213.953 230.484 214.149C244.496 200.295 254.622 182.254 258.22 162.878L277.988 166.973C277.988 166.999 277.988 167.025 277.988 167.038L282.096 167.405C282.972 167.418 283.548 167.849 283.796 168.7C284.306 171.146 285.157 173.462 286.334 175.647C286.583 176.157 286.609 176.68 286.413 177.217C286.478 177.753 286.308 178.198 285.916 178.564C285.392 179.074 285 179.65 284.725 180.317C284.921 181.586 285.118 182.855 285.314 184.124C285.366 184.478 285.419 184.831 285.484 185.184C285.654 185.498 285.863 185.786 286.086 186.074C287.486 187.657 289.069 189.004 290.848 190.129C291.371 190.469 291.646 190.954 291.659 191.568C292.208 192.497 292.235 193.452 291.764 194.42C291.633 194.695 291.502 194.983 291.384 195.258L291.345 195.349C290.796 200.831 290.625 206.326 290.822 211.833C291.894 219.683 292.784 227.52 293.229 235.448C293.281 236.35 293.36 237.266 293.438 238.169C293.477 238.287 293.504 238.391 293.543 238.496C294.917 245.757 296.094 253.122 298.135 260.239C298.344 260.41 298.501 260.632 298.593 260.881C299.77 264.138 301.275 267.226 303.106 270.156C303.119 270.169 303.146 270.195 303.159 270.209C304.951 271.857 306.966 273.244 308.653 274.997C309.765 275.742 310.877 276.488 311.99 277.221C312.801 277.796 313.651 278.32 314.541 278.791C314.658 278.843 314.776 278.909 314.894 278.961C314.802 278.922 314.815 278.935 314.92 278.974C315.142 279.065 315.365 279.131 315.587 279.209C315.836 279.288 316.084 279.353 316.346 279.406C316.477 279.445 316.608 279.471 316.738 279.484C316.961 279.523 317 279.536 316.856 279.51C317.393 279.563 317.824 279.785 318.191 280.178C320.022 280.557 321.867 280.897 323.685 281.276C324.405 281.394 324.811 281.813 324.902 282.532C324.928 282.559 324.954 282.585 324.981 282.624C325.229 283.226 325.334 283.854 325.282 284.508C325.334 285.607 325.36 286.706 325.386 287.818C325.439 290.016 325.439 292.214 325.399 294.425C325.399 294.922 325.216 295.34 324.85 295.681C324.379 296.335 323.738 296.57 322.953 296.387C322.207 296.243 321.474 296.23 320.729 296.361C320.873 296.4 321.003 296.452 321.134 296.479C321.317 296.531 321.514 296.557 321.697 296.596C321.71 296.609 321.723 296.609 321.736 296.609L321.788 296.622C322.547 296.675 323.306 296.583 324.052 296.688C325.19 296.884 326.04 297.473 326.629 298.454C329.298 300.273 332.15 301.725 335.185 302.811C337.998 303.582 340.863 303.91 343.78 303.805C344.108 303.648 344.448 303.582 344.814 303.609C349.772 303.936 354.665 303.53 359.506 302.418C360.265 302.156 361.037 301.882 361.808 301.62C364.346 300.43 366.858 299.2 369.318 297.865C369.344 297.852 369.383 297.826 369.423 297.813L369.75 297.486C370.142 297.08 370.626 296.845 371.176 296.753C371.241 296.714 371.32 296.675 371.385 296.622C371.503 296.531 371.62 296.439 371.738 296.348C371.79 296.322 371.895 296.23 371.974 296.178C372.275 295.929 372.575 295.667 372.876 295.419C374.08 294.385 375.218 293.286 376.317 292.148C378.253 290.147 380.046 288.001 381.812 285.855C382.701 283.985 383.578 282.101 384.389 280.191C384.886 279.288 385.645 278.856 386.679 278.869L390.59 279.209C390.826 279.079 391.087 278.987 391.362 278.948C391.964 278.869 392.527 278.974 393.05 279.262C393.678 279.615 394.083 280.151 394.267 280.845C394.306 281.08 394.332 281.316 394.332 281.551H394.358L394.332 281.878C394.332 281.931 394.319 281.983 394.319 282.035C394.214 283.095 394.11 284.142 393.992 285.188C393.953 285.921 393.835 286.64 393.665 287.347C393.56 287.687 393.455 288.014 393.351 288.354C393.024 298.69 392.579 309.012 391.401 319.282C391.428 319.556 391.454 319.844 391.454 320.119C391.493 322.906 391.375 325.692 391.284 328.466C391.218 330.258 391.114 332.05 391.022 333.843C391.114 334.144 391.153 334.445 391.127 334.745C390.931 339.102 390.669 343.445 390.394 347.789C390.473 358.046 389.949 368.276 388.837 378.468C388.811 378.73 388.746 378.965 388.654 379.2C388.484 385.192 388.209 391.171 387.804 397.137C388.68 405.117 387.621 413.425 387.267 421.379C386.888 429.399 386.522 437.419 386.155 445.425C386.168 445.53 386.181 445.648 386.168 445.752C386.116 446.799 386.064 447.845 385.998 448.892C385.985 449.625 385.697 450.24 385.135 450.737C385.187 452.451 385.253 454.164 385.292 455.878C385.357 455.813 385.423 455.747 385.488 455.695C386.168 454.832 387.058 454.439 388.144 454.505C388.628 454.518 389.099 454.596 389.557 454.766C390.25 454.766 390.944 454.688 391.624 454.491C392.134 431.597 396.595 408.924 395.889 385.977C395.85 385.271 396.033 384.604 396.412 384.015L400.625 333.542C401.344 324.881 402.208 316.207 402.116 307.494C402.064 303.321 401.593 299.134 401.868 294.961C402.051 292.122 402.744 289.335 402.993 286.523C402.81 286.078 402.692 285.633 402.626 285.162C402.469 283.958 402.626 282.807 403.097 281.695C403.398 280.949 403.869 280.335 404.536 279.864C404.523 279.693 404.55 279.536 404.576 279.379C404.72 278.909 405.034 278.673 405.518 278.647C405.544 278.647 405.557 278.621 405.583 278.621C405.622 278.608 405.662 278.621 405.701 278.608C405.832 278.542 405.963 278.49 406.106 278.477C406.159 278.49 406.198 278.49 406.25 278.503C406.316 278.49 406.381 278.49 406.46 278.49C406.512 278.49 406.564 278.516 406.63 278.529C406.826 278.516 407.009 278.464 407.205 278.477C407.506 278.451 407.768 278.542 408.003 278.738C408.173 278.909 408.265 279.118 408.291 279.366C408.304 279.484 408.291 279.602 408.265 279.733C409.325 280.413 409.914 281.381 410.031 282.637C410.568 286.824 409.207 290.827 408.932 294.961C408.658 299.134 409.129 303.321 409.168 307.494C409.272 316.194 408.409 324.881 407.689 333.542L403.346 385.546C403.307 386.03 403.189 386.488 402.967 386.932C403.503 408.493 399.604 429.831 398.793 451.339C400.206 450.658 401.645 450.083 403.124 449.585C405.662 448.774 408.304 448.303 410.607 446.917C412.752 445.412 414.977 444.025 417.279 442.769C422.237 440.519 427.562 439.656 432.782 438.23C432.887 438.203 432.991 438.164 433.096 438.138C432.704 437.654 432.429 437.118 432.259 436.529C427.327 420.267 421.989 404.045 417.462 387.626L416.01 383.008C414.401 377.918 412.007 372.568 412.36 367.151C412.308 366.877 412.229 366.589 412.164 366.314C411.052 361.12 418.417 358.739 420.353 362.991C422.499 364.757 423.192 367.858 424.082 370.409L427.248 379.449C429.407 385.611 431.552 391.773 433.711 397.935C435.909 403.704 437.714 409.605 439.114 415.623C439.781 418.92 440.2 422.256 440.606 425.592C440.802 427.135 440.998 428.692 441.194 430.236C441.299 431.086 441.404 431.924 441.508 432.774C441.966 433.297 442.319 433.886 442.542 434.553C442.555 434.58 442.555 434.606 442.568 434.632C442.686 434.684 442.816 434.723 442.934 434.789C445.328 433.873 447.736 432.944 450.13 432.042C450.588 431.924 451.032 431.898 451.503 431.95C451.961 432.015 452.393 432.159 452.812 432.395C453.217 432.617 453.557 432.918 453.845 433.284C454.133 433.651 454.342 434.056 454.473 434.514ZM293.726 289.689C291.829 288.668 290.037 287.491 288.349 286.143C285.798 284.207 283.247 282.271 280.696 280.335C280.434 280.138 280.238 279.89 280.081 279.602C280.081 279.589 280.068 279.589 280.068 279.576C280.042 279.563 280.028 279.536 280.015 279.523C280.002 279.51 279.989 279.51 279.963 279.497C278.472 278.634 277.268 277.469 276.339 276.004C275.345 274.748 274.351 273.479 273.356 272.223C271.485 269.829 269.615 267.448 267.731 265.067C266.946 264.347 266.187 263.589 265.363 262.895C265.023 262.594 264.669 262.32 264.329 262.045C262.184 260.985 259.973 260.109 257.696 259.389C252.62 257.898 247.439 256.838 242.18 256.21C238.844 256.262 235.482 256.511 232.172 256.367C230.707 256.524 229.294 256.707 227.815 256.969C226.821 257.139 225.774 257.414 224.715 257.61C220.96 259.468 217.598 261.875 214.628 264.818C210.808 268.782 207.197 272.982 203.573 277.116C203.194 277.718 202.814 278.32 202.487 278.948C201.179 281.551 200.459 284.325 200.368 287.255C200.538 287.792 200.682 288.367 200.904 288.93C201.598 290.578 202.527 292.096 203.665 293.483C204.62 294.464 205.012 295.641 204.803 297.002C204.489 298.794 203.939 300.508 203.181 302.17C203.168 302.209 203.154 302.235 203.141 302.274C201.702 306.932 199.858 311.406 197.581 315.71C197.136 317.018 196.783 318.34 196.508 319.7C196.221 321.139 196.325 322.552 196.809 323.939C196.836 323.991 196.875 324.044 196.901 324.083C197.019 324.279 197.15 324.476 197.293 324.672C197.333 324.711 197.385 324.79 197.411 324.816C197.49 324.907 197.581 325.012 197.66 325.104C197.843 325.3 198.026 325.483 198.222 325.666C198.314 325.758 198.419 325.836 198.51 325.928C198.536 325.941 198.602 325.993 198.641 326.032C198.85 326.189 199.073 326.307 199.295 326.451C199.661 326.634 200.041 326.778 200.446 326.857C201.114 326.987 201.794 327.027 202.474 327.001C202.513 326.987 202.553 326.948 202.592 326.948C203.534 326.726 204.45 326.412 205.313 325.993C205.418 325.954 205.509 325.915 205.601 325.875L205.614 325.862C205.823 325.771 206.046 325.679 206.255 325.588C206.621 325.418 207.001 325.247 207.367 325.064C207.563 324.96 207.747 324.855 207.943 324.75C208.558 324.227 209.173 323.704 209.735 323.128C210.128 322.722 210.494 322.317 210.86 321.898C211.03 321.702 211.2 321.506 211.357 321.296C211.37 321.27 211.501 321.113 211.554 321.061C211.593 321.009 211.658 320.904 211.671 320.891C211.92 320.564 212.129 320.184 212.365 319.844C212.378 319.792 212.417 319.753 212.43 319.7C212.862 318.771 213.163 318.013 213.555 317.018C214 316.011 214.353 314.978 214.602 313.918C214.733 313.447 215.007 313.094 215.439 312.858C215.858 312.61 216.303 312.557 216.774 312.675C217.441 312.845 217.833 313.264 217.951 313.944C217.964 313.957 217.99 313.957 218.003 313.97C218.658 314.65 219.39 315.2 220.214 315.632C221.012 316.037 221.824 316.404 222.661 316.717C223.446 317.045 224.27 317.188 225.133 317.123C226.115 317.005 227.057 316.6 228.038 316.417C228.64 316.299 229.176 316.43 229.647 316.822C229.896 316.914 230.118 317.045 230.314 317.215C230.903 317.764 231.596 318.104 232.394 318.248C232.617 318.301 232.826 318.34 233.048 318.379C233.271 318.418 233.31 318.431 233.153 318.405C233.284 318.418 233.415 318.444 233.546 318.458C234.03 318.497 234.501 318.536 234.985 318.549C236.071 318.68 237.143 318.628 238.203 318.379C239.093 318.091 239.891 317.646 240.61 317.045C241.277 316.43 241.997 316.364 242.756 316.835C242.874 316.861 242.991 316.888 243.096 316.927C246.275 318.222 249.402 318.13 252.489 316.652C253.431 316.181 254.282 315.553 255.381 315.906C256.375 316.233 256.924 317.319 257.513 318.117C258.756 319.792 259.999 321.48 261.229 323.167C261.255 323.193 261.255 323.22 261.268 323.259C261.53 323.442 261.713 323.677 261.83 323.965C261.87 324.018 261.896 324.07 261.935 324.122L261.948 324.135C262.576 323.612 263.204 323.115 263.832 322.592C264.081 322.33 264.342 322.094 264.591 321.846C264.617 321.728 264.656 321.624 264.709 321.519C266.383 319.583 268.215 317.816 270.19 316.194C271.76 314.716 273.239 313.146 274.625 311.497C276.261 309.574 278.014 307.782 279.898 306.094C279.95 305.78 280.107 305.506 280.342 305.296C282.226 303.779 283.979 302.13 285.628 300.351C287.237 298.598 288.624 296.688 290.063 294.791C290.403 294.333 290.809 293.927 291.188 293.496C291.764 292.58 292.365 291.69 293.033 290.827C293.255 290.447 293.491 290.068 293.726 289.689ZM384.18 458.979C384.167 458.913 384.167 458.848 384.167 458.783C384.101 458.809 384.049 458.861 383.984 458.9C384.049 458.913 384.114 458.94 384.18 458.979ZM297.428 413.726C297.219 412.862 296.997 411.999 296.761 411.148V411.135C296.892 409.801 296.473 408.689 295.479 407.786C294.864 407.184 294.917 404.712 294.773 403.783C294.459 401.794 294.158 399.793 293.844 397.804L292.065 386.278C291.502 382.576 290.861 378.873 290.364 375.158C289.84 371.207 289.867 367.282 289.683 363.318C289.435 357.666 280.604 357.627 280.866 363.318C281.049 367.57 281.101 371.756 281.664 375.995C282.253 380.496 282.998 384.983 283.692 389.483C284.346 393.748 285.013 398.013 285.667 402.291C286.112 405.196 286.217 408.584 287.446 411.358C287.525 411.763 287.682 412.143 287.904 412.483C287.943 412.548 287.983 412.614 288.009 412.666C288.271 413.464 288.467 414.275 288.676 415.073C288.859 415.793 289.029 416.539 289.199 417.284C288.872 417.965 288.742 418.684 288.794 419.43C288.598 421.078 289.16 422.373 290.495 423.355C290.508 423.368 290.534 423.368 290.547 423.381C290.835 423.629 291.149 423.826 291.502 423.956C291.554 423.969 291.594 424.009 291.633 424.022C291.973 424.218 292.352 424.323 292.745 424.323C292.993 424.375 293.255 424.388 293.517 424.375C293.543 424.427 293.595 424.48 293.648 424.519C293.818 424.663 294.001 424.715 294.21 424.702H294.236C294.249 424.715 294.276 424.728 294.302 424.741L294.315 424.728C294.315 424.728 294.328 424.741 294.341 424.741C294.406 424.781 294.485 424.807 294.563 424.807C294.642 424.82 294.72 424.82 294.799 424.807L294.812 424.794L294.851 424.807L295.087 424.768L295.296 424.689C295.374 424.637 295.44 424.584 295.492 424.506V424.571L296.827 422.583C296.84 422.583 296.853 422.583 296.853 422.57C296.944 422.465 297.023 422.36 297.088 422.229L297.18 422.02C297.206 421.915 297.219 421.811 297.193 421.693C297.258 421.68 297.324 421.667 297.389 421.654C297.481 421.445 297.572 421.235 297.664 421.013C297.664 421 297.677 420.987 297.677 420.96C297.69 420.934 297.703 420.895 297.703 420.856C297.769 420.463 297.834 420.045 297.873 419.639C297.873 419.626 297.873 419.6 297.873 419.587C297.873 419.534 297.86 419.508 297.86 419.456C298.056 418.749 298.135 418.017 298.083 417.271C297.965 416.068 297.742 414.89 297.428 413.726ZM348.006 489.331C347.731 488.506 347.313 487.748 346.763 487.067C346.698 486.963 346.646 486.858 346.58 486.766C346.489 486.138 346.371 485.524 346.214 484.922C345.861 483.784 345.193 482.907 344.186 482.279C343.676 481.991 343.139 481.808 342.551 481.717C341.975 481.638 341.399 481.677 340.837 481.821C340.274 481.978 339.751 482.227 339.293 482.58C338.822 482.933 338.443 483.365 338.142 483.875C337.514 484.935 337.37 486.073 337.697 487.277C337.932 487.944 337.932 488.677 338.129 489.357C338.22 489.684 338.351 489.998 338.495 490.312C338.613 490.613 338.744 490.914 338.914 491.201C339.071 491.437 339.241 491.646 339.411 491.869C339.332 492.17 339.306 492.484 339.306 492.798C339.319 494.014 339.751 495.048 340.601 495.911C341.452 496.735 342.472 497.167 343.663 497.193C343.754 497.22 343.846 497.22 343.951 497.206H344.173C344.186 497.206 344.199 497.206 344.212 497.206H344.304C345.507 497.193 346.554 496.762 347.417 495.911C348.268 495.048 348.7 494.014 348.713 492.798C348.686 492.13 348.529 491.489 348.255 490.874C348.229 490.351 348.15 489.841 348.006 489.331ZM221.3 444.967L204.777 431.754C203.377 430.589 201.768 430.079 199.949 430.236C198.693 430.367 197.66 430.916 196.862 431.898L186.448 445.111C184.721 447.296 185.467 450.789 188.096 452.908L204.62 466.122C205.836 467.116 207.236 467.64 208.806 467.666C209.029 467.666 209.238 467.653 209.447 467.626C210.703 467.509 211.737 466.959 212.535 465.978L222.949 452.765C224.676 450.58 223.93 447.087 221.3 444.967ZM53.3837 421.157C42.5513 415.911 33.328 408.61 25.7138 399.282C18.1128 389.941 12.2517 379.606 8.14375 368.276C5.82811 361.984 4.0227 355.547 2.72752 348.953C2.50511 347.841 0.804357 348.312 1.02677 349.424C3.3424 361.382 7.34571 372.725 13.0628 383.479C18.7277 394.285 26.1717 403.665 35.4081 411.619C40.6281 416.041 46.3191 419.731 52.4941 422.687C53.5146 423.171 54.4173 421.654 53.3837 421.157ZM129.787 162.355C131.396 162.054 132.992 161.766 134.614 161.517C135.726 161.334 135.255 159.634 134.143 159.804C121.047 161.923 108.488 165.795 96.4781 171.447C84.4682 177.099 73.3218 184.137 63.0518 192.55C52.6249 201.053 43.297 210.617 35.068 221.253C26.7735 231.902 19.7612 243.35 14.0441 255.569C8.36616 267.657 4.1797 280.23 1.51082 293.313C1.18375 294.922 0.882855 296.531 0.621201 298.14C0.42496 299.252 2.12571 299.723 2.32195 298.611C4.55909 285.568 8.31383 272.969 13.5992 260.841C18.9108 248.596 25.5307 237.096 33.4195 226.342C41.3215 215.575 50.3093 205.829 60.383 197.076C70.352 188.429 81.2237 181.102 92.9851 175.11C104.668 169.145 116.926 164.906 129.787 162.355Z" fill="#7D97F9"/>
    </g>
    <mask id="mask2_164_5520" style="mask-type:luminance" maskUnits="userSpaceOnUse" x="0" y="25" width="543" height="490">
        <path d="M0 25.1189H542.16V514.098H0V25.1189Z" fill="white"/>
    </mask>
    <g mask="url(#mask2_164_5520)">
        <path d="M375.971 235.135C375.683 235.501 375.461 235.894 375.277 236.312C373.943 239.583 375.29 244.254 375.761 247.577C376.167 250.533 376.573 253.503 376.86 256.486C377.658 258.174 378.195 259.953 378.483 261.797C379.516 265.552 380.393 269.399 381.675 273.075C381.701 273.153 381.923 273.729 381.963 273.834C382.133 274.239 382.329 274.619 382.538 274.985C382.983 275.665 383.363 276.372 383.69 277.104C384.278 277.955 384.396 278.857 384.056 279.825C384.017 279.93 383.977 280.035 383.938 280.139C383.572 281.736 382.996 283.266 382.224 284.718C382.107 284.954 381.976 285.163 381.806 285.359C380.798 287.884 379.281 290.069 377.266 291.914C376.403 292.633 375.5 293.314 374.571 293.955C372.962 295.799 370.581 296.977 368.487 298.167C365.963 299.646 363.333 300.889 360.599 301.922C357.707 302.916 354.751 303.584 351.702 303.924C350.25 304.159 348.798 304.264 347.32 304.238C343.578 304.696 339.902 304.356 336.304 303.23C334.525 302.733 332.798 302.105 331.11 301.346C329.606 300.627 328.337 299.606 327.303 298.298C326.126 297.618 325.524 296.584 325.485 295.224C325.511 290.697 325.55 286.171 325.576 281.644C319.48 281.134 313.893 279.184 308.804 275.783C300.628 270.144 295.695 255.465 294.662 245.575L292.215 222.144C290.92 209.689 289.69 196.724 293.811 184.937C293.707 184.662 293.733 184.4 293.903 184.165C294.086 183.916 294.322 183.811 294.623 183.825C295.133 183.89 295.617 184.073 296.035 184.387C296.454 184.623 296.873 184.845 297.305 185.054C298.94 185.826 300.641 186.297 302.433 186.493C302.485 186.507 302.525 186.507 302.577 186.507C303.833 186.088 304.984 185.447 306.005 184.596C306.58 183.995 307.208 183.445 307.888 182.948C307.928 182.673 308.085 182.477 308.359 182.359C308.621 182.255 308.87 182.294 309.105 182.464C310.322 183.38 311.695 183.942 313.2 184.165C314.705 184.387 316.17 184.243 317.609 183.733C317.635 183.668 317.661 183.602 317.7 183.537C318.054 182.948 318.799 182.686 319.323 182.268C319.898 181.81 320.395 181.273 320.814 180.659C320.906 180.528 321.023 180.423 321.18 180.358C321.311 180.109 321.521 179.965 321.808 179.913C322.083 179.874 322.332 179.952 322.541 180.148C323.287 180.842 324.124 181.391 325.053 181.784C326.793 181.836 328.533 181.81 330.26 181.718C331.149 181.666 332.039 181.601 332.929 181.509C333.491 181.444 334.067 181.404 334.643 181.391C335.65 180.973 336.54 180.397 337.351 179.664C337.508 179.481 337.717 179.39 337.979 179.416C338.175 179.233 338.41 179.167 338.672 179.206C338.934 179.259 339.13 179.39 339.274 179.625C340.242 180.986 341.446 182.111 342.858 183C344.193 183.641 345.567 184.139 347.006 184.505C347.437 184.61 347.882 184.701 348.34 184.78C348.432 184.806 348.471 184.806 348.471 184.806C348.484 184.806 348.523 184.819 348.628 184.819C348.824 184.845 349.02 184.858 349.217 184.871C349.661 184.91 350.106 184.91 350.564 184.897C350.747 184.884 350.944 184.884 351.14 184.858C351.271 184.845 351.401 184.832 351.519 184.819C351.375 184.832 351.415 184.832 351.637 184.793C351.781 184.78 351.938 184.78 352.082 184.78C352.409 184.557 352.736 184.361 353.089 184.191C353.351 184.073 353.612 183.982 353.887 183.929C353.94 183.903 353.966 183.851 354.018 183.825C354.528 183.55 354.921 183.655 355.235 184.152C355.3 184.269 355.339 184.413 355.339 184.557C355.47 184.806 355.549 185.067 355.562 185.355C355.601 186.284 355.509 187.213 355.287 188.116C355.339 188.26 355.366 188.404 355.379 188.561C355.68 192.891 355.941 197.234 356.595 201.539C356.608 201.591 356.621 201.643 356.621 201.696C357.629 203.867 358.937 205.817 360.572 207.557C361.92 208.97 363.424 210.199 365.086 211.233C366.63 212.162 368.069 213.248 369.39 214.477L369.992 214.582C370.241 214.634 370.476 214.713 370.698 214.844C375.474 209.244 380.615 206.34 384.435 208.067C393.332 212.083 387 233.814 375.971 235.135ZM444.681 184.06C443.687 194.186 440.155 203.331 434.071 211.481C433.391 212.384 434.921 213.274 435.589 212.371C441.842 203.946 445.453 194.513 446.447 184.06C446.565 182.935 444.799 182.948 444.681 184.06ZM264.729 262.648C257.376 257.977 248.297 256.355 239.714 256.29C230.177 256.224 221.673 256.878 215.25 264.663L215.263 264.636C211.992 268.116 208.944 270.772 206.17 274.658C203.462 278.426 199.106 283.305 200.636 288.329C201.474 291.037 203.449 293.183 205.045 295.472L205.098 295.302L205.412 295.786C204.051 300.391 202.429 304.905 200.532 309.314C199.132 312.192 197.876 315.136 196.777 318.145C194.697 325.222 202.717 329.801 208.565 324.437C212.345 320.957 214.962 314.979 215.982 309.968L216.205 309.863C216.375 311.119 216.741 312.31 217.291 313.448C218.782 316.248 224.133 318.629 228.974 316.352L228.882 316.117C231.394 319.401 237.36 320.578 241.912 315.816L241.873 315.737C243.103 316.836 244.542 317.53 246.164 317.805C247.786 318.092 249.356 317.935 250.9 317.32C255.662 315.109 259.417 310.648 261.772 306.056C261.877 305.86 261.981 305.638 262.086 305.402C263.839 304.552 265.317 303.361 266.534 301.831C268.261 299.75 269.883 297.579 271.532 295.433C274.03 292.162 276.804 288.866 277.864 284.888C278.178 284.3 278.505 283.698 278.832 283.109C278.845 283.083 278.858 283.044 278.871 283.005C278.884 282.991 278.897 282.991 278.897 282.965C279.08 282.677 279.211 282.35 279.303 282.01C279.46 281.382 279.46 280.754 279.303 280.113L280.048 279.773C274.763 274.239 271.348 266.847 264.729 262.648ZM384.475 486.859C384.344 484.727 384.095 482.607 383.716 480.501C383.611 479.52 383.402 478.552 383.075 477.623C382.63 476.55 381.845 475.883 380.707 475.634C380.053 474.758 379.346 473.933 378.587 473.162C375.84 470.467 372.818 468.151 369.495 466.228C367.048 464.632 364.497 463.193 361.868 461.937C360.062 460.694 358.178 459.621 356.203 458.692C350.512 456.089 344.533 454.833 338.28 454.924C332.131 454.964 326.466 456.625 321.285 459.935C318.812 461.596 316.484 463.415 314.273 465.417C312.951 466.476 311.761 467.68 310.714 469.014C308.752 470.074 307.064 471.448 305.638 473.175C304.736 474.247 303.898 475.373 303.126 476.537C302.328 477.714 301.203 479.023 301.151 480.501C301.255 482.241 301.569 483.942 302.093 485.603C302.472 487.343 302.852 489.07 303.231 490.81C303.545 492.249 303.61 494.329 304.67 495.455C304.984 495.782 305.35 496.004 305.782 496.109C306.044 496.266 306.332 496.331 306.619 496.331C311.879 496.292 317.138 496.37 322.384 496.593C322.685 496.606 322.96 496.54 323.221 496.396C324.948 496.449 326.61 496.148 328.206 495.507C330.678 494.67 333.073 493.662 335.401 492.498C337.39 491.438 339.496 490.81 341.733 490.575C343.068 490.365 344.415 490.326 345.776 490.457C346.613 491.15 347.437 491.844 348.34 492.446C349.243 493.073 350.329 493.505 351.179 494.212C352.029 495.101 353.024 495.782 354.149 496.253C355.85 496.802 357.59 496.959 359.356 496.697C359.434 496.724 359.513 496.763 359.591 496.789C363.673 496.92 367.755 497.051 371.837 496.998C375.683 496.946 379.621 496.357 383.48 496.671C383.794 496.082 383.807 495.494 383.52 494.905C383.716 494.369 383.86 493.832 383.964 493.283C384.422 491.163 384.592 489.018 384.475 486.859ZM539.832 375.709C539.832 377.095 539.701 378.456 539.426 379.817C539.164 381.177 538.759 382.498 538.236 383.768C537.699 385.05 537.058 386.266 536.286 387.418C535.514 388.569 534.638 389.629 533.67 390.61C532.688 391.591 531.629 392.454 530.477 393.226C529.326 393.998 528.109 394.652 526.827 395.176C525.558 395.712 524.237 396.104 522.876 396.379C521.529 396.641 520.155 396.785 518.768 396.785C517.395 396.785 516.021 396.641 514.66 396.379C513.313 396.104 511.992 395.712 510.71 395.176C509.44 394.652 508.224 393.998 507.073 393.226C505.921 392.454 504.862 391.591 503.88 390.61C502.899 389.629 502.036 388.569 501.264 387.418C500.492 386.266 499.838 385.05 499.314 383.768C498.791 382.498 498.386 381.177 498.111 379.817C497.849 378.456 497.705 377.095 497.705 375.709C497.705 374.322 497.849 372.948 498.111 371.601C498.386 370.24 498.791 368.919 499.314 367.637C499.838 366.368 500.492 365.151 501.264 364C502.036 362.848 502.899 361.789 503.88 360.807C504.862 359.826 505.921 358.95 507.073 358.178C508.224 357.419 509.44 356.765 510.71 356.242C511.992 355.705 513.313 355.313 514.66 355.038C516.021 354.763 517.395 354.632 518.768 354.632C520.155 354.632 521.529 354.763 522.876 355.038C524.237 355.313 525.558 355.718 526.827 356.242C528.109 356.778 529.313 357.419 530.464 358.191C531.616 358.963 532.675 359.839 533.657 360.807C534.638 361.789 535.514 362.848 536.273 364C537.045 365.151 537.699 366.368 538.222 367.65C538.759 368.919 539.151 370.24 539.426 371.601C539.701 372.948 539.832 374.322 539.832 375.709ZM531.014 375.709C531.014 374.086 530.7 372.516 530.085 371.025C529.457 369.52 528.567 368.199 527.429 367.048C526.278 365.897 524.957 365.02 523.452 364.392C521.961 363.777 520.391 363.463 518.768 363.463C517.146 363.463 515.589 363.777 514.085 364.392C512.593 365.02 511.272 365.897 510.121 367.048C508.97 368.199 508.093 369.52 507.465 371.025C506.85 372.516 506.536 374.086 506.536 375.709C506.536 377.331 506.85 378.888 507.465 380.392C508.093 381.897 508.97 383.218 510.121 384.369C511.272 385.521 512.593 386.397 514.085 387.025C515.589 387.64 517.146 387.954 518.768 387.954C520.391 387.954 521.961 387.64 523.452 387.012C524.957 386.397 526.278 385.507 527.429 384.356C528.567 383.218 529.457 381.897 530.072 380.392C530.7 378.888 531.014 377.331 531.014 375.709ZM468.583 161.035C468.74 170.31 467.406 179.376 464.58 188.207C461.767 197.051 457.607 205.202 452.099 212.672C448.985 216.898 445.492 220.796 441.62 224.355C440.782 225.127 442.038 226.37 442.863 225.598C449.823 219.135 455.553 211.73 460.053 203.37C464.567 195.023 467.602 186.166 469.198 176.799C470.075 171.579 470.467 166.333 470.349 161.035C470.336 160.472 470.035 160.184 469.473 160.184C468.897 160.184 468.609 160.472 468.583 161.035ZM126.026 144.55C124.678 145.348 123.239 145.963 121.722 146.369C120.217 146.774 118.673 146.971 117.103 146.958C115.533 146.931 113.99 146.696 112.485 146.251C110.981 145.806 109.568 145.165 108.233 144.328C106.82 143.399 105.591 142.261 104.57 140.913C101.627 141.842 98.6306 142.025 95.5954 141.476C92.6387 140.887 89.9699 139.657 87.6019 137.773C85.2339 135.89 83.4416 133.574 82.2118 130.813C81.7539 129.78 83.2715 128.89 83.7294 129.924C84.5144 131.782 85.6133 133.443 87.0132 134.908C88.413 136.374 90.0222 137.538 91.8407 138.415C93.6723 139.291 95.5824 139.801 97.5971 139.971C99.6118 140.141 101.6 139.945 103.537 139.383C101.757 136.308 101.326 132.658 104.06 129.741C104.95 128.773 106.049 128.21 107.344 128.027C108.652 127.857 109.856 128.105 110.981 128.786C111.53 129.152 111.988 129.597 112.354 130.146C112.721 130.683 112.956 131.284 113.087 131.926C113.218 132.567 113.205 133.208 113.074 133.862C112.93 134.503 112.681 135.092 112.302 135.628C110.784 137.852 108.757 139.422 106.219 140.338C107.893 142.156 109.895 143.478 112.224 144.315C114.356 145.074 116.567 145.348 118.817 145.126C121.081 144.89 123.187 144.197 125.136 143.02C126.104 142.418 126.981 143.949 126.026 144.55ZM105.12 138.886C107.278 138.166 109.071 136.936 110.497 135.157C111.936 133.181 111.622 130.552 109.044 129.858C106.572 129.204 104.557 131.18 104.034 133.469C103.628 135.432 103.981 137.237 105.12 138.886ZM55.5493 334.472C54.4373 326.361 56.7921 313.33 56.7921 313.33C50.3555 315.672 43.7618 316.326 36.998 315.319H36.5663C36.5663 325.785 41.8386 334.472 55.5493 334.472ZM196.345 52.1995C200.388 52.5135 204.26 51.3622 208.107 50.3156C209.664 49.9101 211.233 49.6222 212.83 49.4914C215.184 49.8316 217.513 50.3418 219.803 51.009C226.514 52.8406 232.702 55.7973 238.328 59.8791C244.28 64.3534 247.917 70.5546 251.79 76.7688C253.334 79.2415 254.982 81.7664 256.343 84.3961C257.808 88.9096 258.697 93.5409 259.011 98.2637C259.025 98.8524 259.142 99.4019 259.378 99.9383C259.6 100.475 259.927 100.946 260.333 101.364C260.738 101.77 261.222 102.097 261.746 102.319C262.282 102.555 262.845 102.673 263.42 102.686C264.009 102.673 264.572 102.568 265.108 102.332C265.644 102.11 266.115 101.796 266.534 101.377C266.94 100.959 267.267 100.488 267.489 99.9514C267.711 99.415 267.829 98.8524 267.829 98.2637C267.829 98.1983 267.816 98.1329 267.816 98.0544C268.078 97.5049 268.222 96.9162 268.261 96.3013C268.562 90.7542 266.783 85.5342 264.31 80.6806C261.916 73.5636 258.54 66.9568 254.171 60.8603C246.217 49.74 232.715 42.7277 219.332 40.883C217.147 40.5821 214.962 40.4905 212.751 40.6083C210.004 40.2681 207.243 40.2289 204.496 40.5167C200.584 40.9615 196.097 41.7464 193.219 44.6639C190.393 47.5421 192.63 51.9117 196.345 52.1995ZM119.825 483.17C119.681 482.712 119.406 482.359 118.987 482.123C118.569 481.888 118.124 481.822 117.653 481.94C112.289 482.686 106.977 482.45 101.692 481.247C101.182 481.103 100.711 481.194 100.279 481.521C95.8833 480.946 91.6575 479.795 87.5888 478.041C83.2846 476.275 78.6533 473.842 74.2968 471.67C73.9174 471.487 73.5118 471.343 73.0932 471.265C71.5364 470.44 69.8748 469.956 68.1087 469.786C64.5633 469.485 60.887 469.708 57.3285 469.747C50.12 469.812 42.9637 469.826 35.8729 471.265C32.3798 471.984 28.8998 472.717 25.4198 473.436C24.7919 473.567 24.177 473.737 23.5752 473.96C19.0747 474.732 14.7443 476.066 10.584 477.976C7.84976 479.153 5.78269 481.077 4.38285 483.706C3.63713 485.119 3.33623 486.624 3.46706 488.207C3.32315 488.377 3.16615 488.534 3.02225 488.717C2.55127 489.306 2.06721 489.881 1.64856 490.509C1.39999 490.863 1.20375 491.255 1.05984 491.661C0.902849 492.079 0.811268 492.498 0.785104 492.943C0.745855 493.374 0.758937 493.806 0.837435 494.238C0.91593 494.67 1.04676 495.075 1.22992 495.481C1.41308 495.873 1.64856 496.239 1.9233 496.58C2.19804 496.92 2.5251 497.208 2.87834 497.469C3.23157 497.718 3.61097 497.927 4.01653 498.071C4.43518 498.228 4.85382 498.333 5.28555 498.372C5.31172 498.607 5.35097 498.843 5.4033 499.078C6.26676 501.446 7.88901 502.977 10.2962 503.697C11.8531 504.246 13.4361 504.377 15.0583 504.089C16.589 505.502 18.3944 506.195 20.4746 506.143C21.8613 506.13 23.235 505.96 24.5825 505.633C24.7526 505.659 24.9096 505.685 25.0928 505.698C26.388 505.79 27.6962 505.751 28.9914 505.724C29.6063 505.698 30.195 505.581 30.7707 505.358C36.5925 505.554 42.4012 505.371 48.1968 504.822C48.2361 507.844 50.8134 509.859 53.4691 510.696C59.6311 512.645 67.4415 512.122 73.8127 512.109C74.48 512.109 75.121 511.978 75.7359 511.729C88.8578 511.324 106.454 512.122 115.939 501.603C116.371 501.119 116.711 500.583 116.946 499.968C117.26 499.497 117.522 498.987 117.744 498.464C117.888 498.123 118.006 497.757 118.085 497.391C119.668 493.27 120.152 489.005 119.563 484.622C119.851 484.177 119.942 483.693 119.825 483.17ZM320.173 53.4162V30.5084C320.173 29.3048 320.723 28.4413 321.808 27.905C322.894 27.3816 323.915 27.4994 324.857 28.2451L342.688 42.4137C343.068 42.7146 343.356 43.1071 343.552 43.5519C343.748 44.0098 343.814 44.4938 343.761 44.9779C343.709 45.475 343.539 45.9198 343.251 46.3254C342.963 46.731 342.61 47.0449 342.165 47.2673L324.333 56.0066C323.889 56.229 323.418 56.3206 322.92 56.3075C322.423 56.2813 321.952 56.1374 321.534 55.8627C321.115 55.601 320.775 55.2609 320.539 54.8161C320.291 54.3843 320.173 53.9134 320.173 53.4162ZM321.939 53.4162C321.939 53.6125 321.992 53.7956 322.083 53.9657C322.175 54.1358 322.306 54.2666 322.463 54.3713C322.633 54.4759 322.816 54.5282 322.999 54.5413C323.195 54.5544 323.378 54.5152 323.548 54.4236L341.38 45.6843C341.55 45.5928 341.694 45.475 341.812 45.318C341.917 45.161 341.982 44.991 342.008 44.7947C342.021 44.5985 341.995 44.4153 341.93 44.2452C341.851 44.0621 341.733 43.9182 341.589 43.7873L323.758 29.6319C323.561 29.4749 323.326 29.3833 323.064 29.3833C322.894 29.3833 322.724 29.4225 322.567 29.501C322.149 29.6973 321.939 30.0374 321.939 30.5084V53.4162ZM207.269 217.565C207.701 217.735 208.146 217.892 208.604 218.01C212.489 223.766 217.382 228.934 221.844 234.141C222.001 234.35 222.21 234.442 222.471 234.415C222.89 234.546 223.191 234.415 223.387 234.023C226.789 227.992 228.96 221.542 229.916 214.674C229.942 214.582 229.955 214.49 229.968 214.399C230.687 213.889 231.368 213.326 231.996 212.698C232.244 212.45 232.467 212.175 232.65 211.874C237.242 208.054 241.127 202.376 244.189 197.888C247.616 192.917 250.325 187.579 252.313 181.875C254.786 177.336 256.473 172.534 257.376 167.458C257.494 166.752 257.468 166.058 257.324 165.378C257.324 165.299 257.324 165.234 257.324 165.169C257.311 165.038 257.271 164.907 257.245 164.776C257.742 164.606 258.069 164.266 258.227 163.769C258.397 163.272 258.331 162.801 258.03 162.369C253.87 155.972 251.319 148.985 250.377 141.424C250.416 141.162 250.377 140.9 250.272 140.652C250.39 140.56 250.495 140.469 250.586 140.351C260.817 137.067 267.868 122.362 261.131 112.707C256.853 106.571 246.622 111.765 244.424 118.019C244.32 118.136 244.228 118.267 244.123 118.385C243.783 118.568 243.417 118.751 243.077 118.921C241.86 119.549 240.604 120.125 239.322 120.635C237.176 121.486 234.992 122.192 232.754 122.755C231.97 122.807 231.198 122.912 230.426 123.082C225.611 122.741 221.098 121.394 216.872 119.065C215.996 118.333 215.158 117.535 214.386 116.684C213.274 115.441 212.306 114.081 211.469 112.629C210.435 111.085 209.938 109.384 209.991 107.526C210.004 107.265 209.951 107.029 209.847 106.807C210.527 105.184 208.408 103.314 207.034 104.831C205.006 107.108 201.827 108.089 199.001 108.978C198.582 109.109 198.151 109.24 197.732 109.358C197.706 109.358 197.68 109.345 197.654 109.345C193.624 109.292 189.49 109.606 185.591 108.494C183.681 107.788 181.902 106.846 180.241 105.669C178.631 104.57 177.297 103.196 176.263 101.547C175.217 99.9121 174.536 98.1198 174.236 96.1966C174.209 95.9612 174.157 95.7388 174.065 95.5294C174.026 95.2285 173.922 94.9669 173.765 94.7183C173.595 94.4697 173.372 94.2866 173.11 94.1427C172.849 93.9988 172.574 93.9333 172.273 93.9333C171.985 93.9333 171.698 93.9988 171.436 94.1427C169.29 95.3724 166.975 96.0266 164.502 96.1312C161.99 96.0266 159.557 95.5163 157.215 94.6006L154.01 92.2326C152.858 94.4697 151.838 96.7723 150.948 99.1403C146.33 111.281 150.046 119.85 152.296 131.808C153.591 138.65 152.989 145.819 153.696 152.792C155.396 169.434 167.145 185.591 181.68 194.343C181.758 195.063 181.994 195.717 182.399 196.305C185.552 200.871 188.587 205.882 193.127 208.656C193.847 209.231 194.605 209.768 195.377 210.265C196.882 211.442 198.425 212.554 200.022 213.601C202.246 215.066 204.627 216.885 207.269 217.565Z" fill="#4542B2"/>
    </g>
    <mask id="mask3_164_5520" style="mask-type:luminance" maskUnits="userSpaceOnUse" x="0" y="0" width="502" height="518">
        <path d="M0 0H501.97V517.447H0V0Z" fill="white"/>
    </mask>
    <g mask="url(#mask3_164_5520)">
        <path d="M339.545 219.357C339.65 219.122 339.794 218.913 339.99 218.743C340.186 218.573 340.409 218.455 340.67 218.389C340.919 218.324 341.167 218.324 341.429 218.376C341.678 218.429 341.9 218.533 342.109 218.703C342.606 219.279 342.868 219.946 342.92 220.705C343.025 221.686 343.038 222.667 342.947 223.636C343.012 224.682 342.606 225.48 341.73 226.043C339.087 227.181 338.839 220.927 339.545 219.357ZM187.904 141.254C188.702 138.179 189.055 135.053 188.963 131.873C188.937 131.311 188.649 131.023 188.074 131.023C187.511 131.023 187.223 131.311 187.197 131.873C187.315 135.576 186.792 139.187 185.627 142.706C184.581 145.872 182.788 148.933 182.736 152.348C182.736 153.787 183.05 155.161 183.691 156.456C184.319 157.751 185.209 158.85 186.347 159.74C189.003 161.715 191.985 162.788 195.282 162.958C196.407 163.076 196.407 161.31 195.282 161.192C192.142 161.061 189.369 159.975 186.975 157.947C185.876 156.914 185.143 155.684 184.764 154.232C184.384 152.78 184.424 151.341 184.868 149.915C185.653 146.945 187.119 144.224 187.904 141.254ZM496.25 476.89C494.719 481.221 492.417 485.093 489.355 488.508C486.281 491.922 482.67 494.618 478.523 496.593C473.277 499.079 467.795 500.766 462.065 501.682C453.705 503.134 445.266 504.207 436.828 505.018C420.122 506.64 403.336 507.282 386.577 508.053V517.211H130.327L130.157 516.531L122.412 482.948C121.836 483.157 121.26 483.366 120.672 483.536C120.698 488.809 120.933 494.461 119.01 499.445C117.192 504.155 113.136 507.334 108.596 509.257C104.174 510.958 99.5953 512.057 94.8856 512.528C88.9984 513.313 83.0719 513.797 77.1323 513.98C73.2991 514.085 69.4528 514.098 65.6196 514.124C62.048 514.228 58.5157 513.954 55.0095 513.313C52.4191 512.75 49.3185 511.677 48.0887 509.1C47.7486 508.407 47.6047 507.674 47.6439 506.902C47.5524 506.928 47.4608 506.954 47.3692 506.968L25.0894 507.661C22.5252 507.739 19.5161 508.237 17.0043 507.465C16.5071 507.321 16.0492 507.098 15.6175 506.798C15.4867 506.85 15.3558 506.863 15.225 506.85C12.5038 506.575 9.58636 506.274 7.33614 504.573C5.88396 503.527 4.98125 502.14 4.61494 500.387C2.91419 500.06 1.64516 499.144 0.794789 497.64C0.16682 496.279 0.03599 494.853 0.415391 493.401C0.820955 491.765 1.60592 490.353 2.79644 489.162C2.69178 489.018 2.63945 488.861 2.63945 488.678C2.70487 484.282 6.69509 481.247 10.1751 479.285C14.597 476.917 19.2545 475.137 24.1343 473.96C28.4385 472.796 32.8082 471.971 37.2301 471.487C42.2539 470.977 47.2907 470.545 52.3406 470.388C58.1363 470.205 63.9319 470.349 69.7145 470.585C69.5967 470.441 69.4659 470.31 69.3481 470.179C68.8379 469.551 68.066 468.753 68.1838 467.916C68.2754 467.458 68.3931 467.013 68.5239 466.568C69.0603 464.396 69.5967 462.225 70.1331 460.053C70.9835 456.638 71.8208 453.224 72.6711 449.809C71.1928 448.789 69.8191 447.651 68.537 446.395C68.2099 446.251 68.0791 446.002 68.1445 445.649V445.61C68.4585 443.085 68.7725 440.547 69.0996 438.022C71.7946 417.626 75.497 397.4 80.1937 377.344C84.9165 357.21 90.6337 337.377 97.3451 317.818C100.223 309.393 102.604 300.823 104.501 292.123C106.411 283.45 108.021 274.697 109.905 266.01C113.568 248.99 118.421 231.917 128.076 217.225C133.009 209.702 138.909 203.043 145.777 197.235C152.122 191.675 159.305 187.619 167.351 185.055C165.912 183.472 164.564 181.823 163.308 180.109C159.318 174.759 156.361 168.884 154.438 162.487C152.253 155.017 152.633 147.35 152.162 139.658C151.678 134.647 150.814 129.702 149.571 124.822C144.482 124.717 139.511 121.695 136.266 117.901C131.452 112.302 130.431 103.785 133.009 96.9819C134.238 93.7243 136.188 90.99 138.87 88.766C141.538 86.555 144.6 85.1421 148.027 84.5534C147.295 79.909 148.106 75.5525 150.422 71.4706C154.961 63.1239 167.037 56.661 175.881 62.2866C177.542 58.5711 179.989 55.4836 183.246 53.024C185.758 51.1401 188.518 49.7403 191.514 48.8114C189.748 47.1761 188.466 45.2268 187.629 42.9765C186.674 40.4516 186.438 37.8612 186.922 35.2185C187.406 32.5627 188.532 30.2209 190.311 28.1931C192.025 26.3353 194.066 24.9878 196.433 24.1374C198.801 23.3001 201.235 23.0516 203.734 23.4048C203.694 20.1211 204.414 17.0074 205.866 14.0768C207.279 11.1856 209.281 8.77835 211.858 6.84211C214.435 4.91895 217.313 3.70226 220.493 3.17896C223.502 2.72106 226.471 2.93039 229.389 3.78076C232.306 4.63114 234.923 6.04406 237.212 8.04572C239.332 5.27219 242.053 3.3752 245.402 2.35475C251.734 0.156852 259.728 0.719408 265.196 4.84046C268.022 6.9991 270.024 9.75955 271.227 13.1087C272.352 15.8299 272.679 18.6558 272.235 21.5601C276.343 20.4481 280.385 20.6444 284.362 22.1489C291.113 24.8832 295.234 31.6077 296.058 38.6723C296.49 42.0084 296.111 45.266 294.933 48.4189C293.769 51.5719 291.937 54.2669 289.438 56.5302C292.474 57.1713 295.09 58.5973 297.275 60.8213C298.557 62.0773 299.643 63.4902 300.519 65.0601C301.396 66.6301 302.024 68.3046 302.416 70.0577C302.809 71.8108 302.953 73.59 302.822 75.3824C302.704 77.1878 302.325 78.9278 301.697 80.6155C299.46 86.0971 292.814 91.3564 286.599 90.4144C287.306 92.887 287.227 95.3335 286.364 97.7538C285.474 100.357 283.996 102.568 281.929 104.4C279.875 106.218 277.494 107.422 274.799 107.998C270.926 108.756 266.387 108.115 263.561 105.289C263.26 107.841 262.331 110.562 260.316 112.079C261.075 112.655 261.703 113.348 262.213 114.146C264.359 117.653 265.105 121.42 264.464 125.476C263.443 132.894 258.223 140.142 251.001 142.575C251.708 146.317 252.584 150.006 253.657 153.656C254.848 157.359 256.627 160.76 258.982 163.848C259.191 164.096 259.217 164.358 259.047 164.646C258.223 169.002 257.098 173.28 255.646 177.467C250.91 191.23 241.556 205.529 231.469 216.061C231.613 216.191 231.731 216.322 231.848 216.466C238.233 222.196 245.193 227.129 252.702 231.263C256.274 227.914 259.571 224.303 262.567 220.43C268.114 213.313 272.208 205.424 274.851 196.79C277.546 187.475 278.305 178.016 277.101 168.387C276.971 167.262 278.737 167.275 278.868 168.387C279.548 174.039 279.587 179.691 278.959 185.342C276.84 203.972 267.002 220.339 253.461 232.99C253.134 233.291 252.781 233.343 252.388 233.12C244.081 228.542 236.414 223.06 229.402 216.662C229.232 216.492 229.14 216.283 229.14 216.034C229.14 215.799 229.232 215.59 229.402 215.42C229.48 215.354 229.546 215.302 229.624 215.263C232.045 212.777 235.982 208.433 238.141 205.712C247.862 193.532 254.246 179.782 257.268 164.476C254.992 161.401 253.252 158.052 252.048 154.415C250.858 150.399 249.889 146.33 249.131 142.222C249.118 142.104 249.104 141.999 249.131 141.895V141.882C249.131 141.843 249.144 141.803 249.157 141.764C249.222 141.424 249.418 141.215 249.745 141.136C253.526 139.972 256.548 137.787 258.838 134.569C262.907 129.048 264.568 121.106 260.683 115.049C256.666 108.769 247.351 114.212 245.31 119.576C245.284 119.772 245.193 119.929 245.049 120.047C242.315 122.336 239.214 123.841 235.734 124.56C232.581 125.28 229.415 125.398 226.236 124.887C223.044 124.39 220.061 123.317 217.287 121.669C214.697 120.034 212.63 117.875 211.099 115.219C209.555 112.563 208.731 109.698 208.6 106.624C206.638 108.39 204.427 109.724 201.941 110.627C198.998 111.687 195.962 112.184 192.836 112.092C189.709 112.001 186.713 111.334 183.835 110.104C180.983 108.835 178.563 106.99 176.6 104.557C174.638 102.123 173.343 99.376 172.715 96.3147C170.373 97.4791 167.9 98.107 165.297 98.2117C162.68 98.3033 160.168 97.8585 157.748 96.8773C156.531 96.3801 155.393 95.7521 154.346 94.9672C153.535 96.6156 152.763 98.2902 152.096 100.004C150.605 103.641 149.781 107.422 149.637 111.347C149.611 114.931 149.99 118.464 150.775 121.957C151.534 125.646 152.463 129.296 153.156 132.986C153.81 137.08 154.137 141.201 154.15 145.362C154.137 149.273 154.412 153.159 154.974 157.032C155.511 160.067 156.335 163.01 157.447 165.888C159.802 171.933 163.086 177.414 167.298 182.347C175.213 191.701 186.229 199.354 198.54 201.251C203.904 201.957 209.189 201.578 214.409 200.113C219.616 198.634 224.326 196.188 228.525 192.76C237.984 185.042 243.178 173.568 245.664 161.846C245.899 160.734 247.6 161.205 247.364 162.317C246.985 164.07 246.566 165.81 246.069 167.537C242.799 179.037 236.453 189.869 226.327 196.541C221.592 199.681 216.437 201.735 210.851 202.716C205.251 203.684 199.704 203.501 194.196 202.154C190.442 201.159 186.844 199.747 183.429 197.889C184.057 199.236 184.816 200.492 185.719 201.657C188.859 205.778 192.522 209.349 196.708 212.371C200.489 215.171 204.78 217.892 209.464 218.821C209.804 218.873 210 219.057 210.066 219.397C210.079 219.436 210.079 219.462 210.092 219.501V219.528C210.144 219.737 210.105 219.933 209.987 220.116C207.907 223.531 205.788 226.932 203.655 230.321C201.771 233.304 199.953 236.378 197.807 239.178C197.389 239.74 196.957 240.381 196.172 240.237C195.858 240.159 195.557 240.041 195.269 239.871C194 239.269 192.783 238.602 191.593 237.869C186.949 235.096 182.644 231.891 178.654 228.254C167.704 218.285 159.697 204.731 160.548 189.555C153.221 193.258 146.719 198.072 141.054 204.011C134.814 210.33 129.581 217.408 125.368 225.245C117.152 240.551 113.345 257.664 109.918 274.553C108.191 283.057 106.555 291.587 104.488 300.012C102.29 308.935 99.229 317.543 96.3639 326.282C90.0057 345.671 84.6157 365.347 80.1937 385.298C75.7979 405.119 72.3833 425.122 69.9499 445.309C72.6581 447.834 75.6802 449.888 79.0293 451.471C85.78 454.65 92.8447 456.822 100.223 457.973C105.744 459.046 111.331 459.49 116.956 459.32L102.5 396.654C102.055 395.045 102.003 393.423 102.33 391.774C102.644 390.139 103.311 388.661 104.318 387.326C105.378 386.057 106.647 385.089 108.151 384.409C109.656 383.742 111.239 383.428 112.887 383.48H147.439C147.439 383.467 147.439 383.454 147.439 383.428C148.577 380.026 149.715 376.638 150.893 373.249C155.223 360.624 159.71 348.052 164.433 335.584C160.927 325.759 158.494 315.672 157.133 305.337C154.373 283.345 155.982 261.693 161.974 240.355C162.144 239.819 162.497 239.623 163.046 239.766C163.596 239.923 163.805 240.277 163.674 240.826C160.338 252.849 158.363 265.082 157.748 277.536C156.754 297.252 159.54 316.418 166.121 335.035C166.239 335.166 166.291 335.323 166.278 335.506C166.5 336.108 166.683 336.722 166.906 337.324C173.486 354.999 183.573 370.397 197.14 383.48H239.162C241.543 378.587 243.989 373.707 246.462 368.854C247.587 366.656 248.738 364.458 249.876 362.273C249.876 362.26 249.863 362.26 249.863 362.247C244.853 351.14 238.233 332.719 236.231 321.18V321.167C234.753 321.403 233.314 321.259 231.901 320.748C230.723 320.33 229.703 319.663 228.852 318.747C227.073 319.466 225.242 319.689 223.345 319.427C221.448 319.165 219.734 318.446 218.216 317.268C217.274 316.483 216.568 315.515 216.123 314.377C216.005 314.783 215.887 315.188 215.744 315.581C214.095 320.395 211.152 326.387 206.154 328.428C205.212 328.847 204.244 329.069 203.223 329.082C202.203 329.108 201.222 328.925 200.267 328.559C199.325 328.179 198.474 327.643 197.742 326.937C197.009 326.217 196.447 325.393 196.041 324.464C195.295 322.096 195.465 319.806 196.538 317.569C197.663 314.652 199.115 311.865 200.306 308.961C201.863 305.193 203.223 301.334 204.375 297.409C204.335 297.383 204.309 297.357 204.27 297.33C202.425 294.701 200.018 292.137 199.534 288.827C199.102 285.896 200.306 283.083 201.824 280.65C203.537 277.942 205.421 275.378 207.488 272.944C209.726 270.302 212.264 267.934 214.632 265.422C214.645 265.409 214.671 265.409 214.684 265.396C216.529 263.132 218.753 261.314 221.33 259.927C222.507 259.325 223.724 258.815 224.98 258.422C224.967 258.383 224.941 258.344 224.928 258.305C223.083 251.227 222.049 244.031 221.827 236.718C221.801 235.58 223.554 235.58 223.593 236.718C223.816 243.874 224.823 250.913 226.628 257.834C226.628 257.873 226.628 257.912 226.628 257.951C229.755 257.232 232.934 256.866 236.139 256.839C242.236 256.578 248.254 257.18 254.181 258.619C260.225 260.019 265.471 262.897 269.906 267.227C273.883 271.348 276.735 276.398 280.66 280.558C281.654 281.448 282.701 282.272 283.76 283.083C286.94 285.556 290.21 287.911 293.52 290.213L294.763 288.591V288.578C294.92 288.369 295.077 288.159 295.234 287.95C295.535 287.466 295.94 287.361 296.451 287.636C301.304 290.959 306.145 294.308 311.064 297.553C312.817 297.239 314.583 297.016 316.35 296.872C316.48 296.833 316.598 296.82 316.729 296.833C319.241 296.65 321.753 296.637 324.251 296.781C324.605 292.464 324.605 288.146 324.265 283.829C321.713 283.502 319.202 282.939 316.755 282.128C312.215 280.742 308.277 278.36 304.954 274.985C301.579 271.086 299.054 266.717 297.367 261.85C295.574 257.14 294.384 252.26 293.808 247.25C293.01 240.015 292.29 232.754 291.532 225.519C290.407 214.687 289.111 203.436 291.191 192.682C287.855 191.099 285.461 188.587 284.009 185.172C283.106 182.739 283.917 179.468 286.22 178.199C283.983 175.282 281.994 171.606 283.054 167.903C283.42 166.582 284.114 165.457 285.121 164.528C286.115 163.599 287.293 163.01 288.64 162.762C286.325 159.439 285.762 154.729 288.444 151.458C289.007 150.778 289.674 150.215 290.433 149.758C291.191 149.3 292.003 148.973 292.866 148.789C293.73 148.593 294.606 148.541 295.483 148.646C296.372 148.737 297.21 148.973 298.021 149.352C298.191 147.494 298.884 145.846 300.114 144.433C301.331 143.02 302.848 142.091 304.654 141.633C308.905 140.573 313.184 142.706 316.101 145.754C316.598 143.753 317.645 142.117 319.254 140.848C321.046 139.632 323.035 138.977 325.193 138.86C330.754 138.389 335.372 142.222 339.061 145.964C341.311 144.538 343.758 143.87 346.414 143.962C348.952 144.04 351.267 144.773 353.387 146.173C353.897 146.526 354.394 146.906 354.852 147.337C355.323 147.887 355.833 148.397 356.383 148.868C357.154 149.352 358.031 149.025 358.881 148.933C359.483 148.868 360.085 148.855 360.687 148.92C361.825 149.038 362.924 149.326 363.971 149.784C365.017 150.242 365.972 150.843 366.836 151.602C367.699 152.348 368.432 153.224 369.02 154.193C369.609 155.174 370.041 156.22 370.303 157.345C376.543 156.482 382.823 161.754 382.849 168.099C385.806 169.068 388.16 170.847 389.9 173.411C393.21 178.461 392.334 184.845 391.811 190.523C391.117 197.797 389.953 204.993 388.344 212.11C389.992 215.564 389.586 220.47 388.658 223.793C387.65 227.586 385.792 230.91 383.097 233.762C380.455 240.604 378.767 247.668 378.048 254.969C378.021 255.23 377.917 255.44 377.707 255.597C378.819 263.983 381.344 271.911 385.282 279.394C389.011 279.25 392.739 279.185 396.468 279.25C402.839 279.315 409.171 279.8 415.464 280.702C430.313 282.102 438.869 285.988 445.306 291.116C448.001 292.869 450.5 294.884 452.802 297.147C462.248 306.58 466.997 319.506 470.333 332.17C472.308 339.666 473.957 347.254 475.723 354.803C477.672 363.058 479.622 371.3 481.584 379.555C485.457 395.817 489.25 412.092 493.123 428.354C493.829 431.297 494.562 434.228 495.269 437.158C495.975 440.023 496.865 442.889 497.349 445.793C499.036 455.997 499.677 466.961 496.25 476.89ZM193.058 47.8825C193.215 48.0134 193.372 48.1311 193.529 48.2489C196.29 47.5947 199.089 47.3854 201.928 47.634C212.46 46.2995 222.599 47.7255 232.345 51.9251C244.29 57.0666 254.521 66.3422 259.492 78.4961C262.03 84.8281 263.181 91.4087 262.946 98.2379C263.391 99.6508 263.639 101.09 263.692 102.581C263.796 102.764 263.901 102.935 264.019 103.105C264.293 102.948 264.437 102.725 264.464 102.411C265.288 94.8494 264.477 87.4577 262.043 80.2491C259.754 73.7732 256.248 68.043 251.525 63.0585C242.262 53.2464 229.31 47.3461 216.005 45.7893C208.391 44.8735 200.882 45.4753 193.503 47.5686C193.32 47.6209 193.176 47.7255 193.058 47.8825ZM168.266 213.039C174.141 222.916 183.246 230.988 193.137 236.731C194.118 237.307 195.125 237.869 196.172 238.34C196.303 238.183 196.473 238.04 196.577 237.909C196.904 237.451 197.218 236.993 197.532 236.535C201.143 231.223 204.506 225.716 207.855 220.234C205.631 219.606 203.524 218.73 201.523 217.591C196.617 214.831 192.208 211.416 188.309 207.348C185.457 204.43 182.134 200.806 181.166 196.711C181.153 196.672 181.153 196.633 181.153 196.594C176.548 193.781 172.387 190.419 168.685 186.507C166.84 186.991 165.035 187.606 163.269 188.325C162.955 188.456 162.654 188.6 162.34 188.744C161.751 197.47 163.727 205.568 168.266 213.039ZM348.049 278.674C352.445 276.83 356.435 274.305 359.993 271.126C364.245 267.227 367.477 262.596 369.661 257.258C370.106 256.211 371.624 257.114 371.192 258.148C370.564 259.652 369.845 261.117 369.06 262.543C363.971 271.701 355.231 278.203 345.419 281.566C339.126 283.737 332.677 284.549 326.044 283.999C326.384 288.473 326.371 292.948 325.978 297.422C328.372 300.719 332.258 302.616 336.117 303.636C345.145 306.043 355.297 304.539 363.787 300.915C372.906 297.043 380.834 290.043 383.791 280.375C382.757 278.491 381.789 276.594 380.952 274.619C375.837 262.727 374.816 249.408 374.397 236.614C374.384 236.352 374.463 236.143 374.659 235.973C374.842 235.802 375.065 235.737 375.313 235.763C375.352 235.75 375.405 235.737 375.457 235.724C378.623 235.502 381.279 233.421 383.176 230.988C386.591 226.631 388.906 219.855 387.297 214.347C386.604 211.966 384.785 209.899 382.129 209.873C377.642 209.807 373.704 214.059 371.048 217.186C371.009 217.225 370.983 217.251 370.931 217.277L370.917 217.29C370.839 217.356 370.76 217.408 370.669 217.434C370.643 217.434 370.63 217.434 370.617 217.447C370.538 217.46 370.46 217.474 370.381 217.46C370.329 217.46 370.263 217.434 370.211 217.421C370.172 217.408 370.146 217.395 370.106 217.369C370.067 217.356 370.028 217.343 369.989 217.33C367.045 215.459 364.232 213.431 361.55 211.22C359.313 209.402 357.612 207.191 356.422 204.574C355.441 201.696 354.878 198.739 354.734 195.717C354.394 192.42 354.198 189.084 354.185 185.761C352.994 186.768 351.62 187.357 350.077 187.514C348.01 187.606 346.086 187.135 344.294 186.101C342.031 184.885 340.042 183.328 338.315 181.431C337.229 182.294 336.052 183.027 334.809 183.629C333.187 184.165 331.525 184.44 329.825 184.466C326.894 184.688 324.212 183.969 321.779 182.294C321.687 182.373 321.596 182.464 321.491 182.543C320.248 184.453 318.508 185.63 316.271 186.075C313.589 186.52 311.116 186.023 308.827 184.558C308.055 187.357 304.222 188.561 301.553 188.338C299.12 188.09 296.909 187.253 294.92 185.827C289.792 199.838 292.225 215.184 293.73 229.64C294.933 241.153 295.326 252.915 299.996 263.682C301.88 268.012 304.353 272.342 307.964 275.456C311.587 278.347 315.669 280.284 320.196 281.278C324.853 282.351 329.563 282.652 334.325 282.207C339.087 281.762 343.666 280.585 348.049 278.674ZM317.54 298.56C319.254 309.458 321.02 320.356 322.852 331.228C326.436 352.526 330.165 373.786 333.92 395.045C337.53 415.441 341.167 435.824 344.726 456.22C358.41 458.47 370.669 466.778 380.978 475.726C380.533 471.827 379.958 467.929 379.186 464.069C379.16 463.873 379.186 463.69 379.277 463.507C379.29 463.481 379.29 463.455 379.303 463.428C379.434 463.232 379.591 463.088 379.814 462.984C381.174 462.499 382.535 462.015 383.909 461.531C384.667 448.998 385.361 436.478 385.976 423.932C387.218 399.336 388.317 374.715 389.456 350.106C390.542 327.067 391.64 304.016 393.053 280.99C390.502 281.003 387.938 281.056 385.387 281.147C383.595 286.707 380.494 291.417 376.111 295.276C368.327 302.197 357.796 305.939 347.473 306.462C339.532 306.855 329.746 305.337 324.644 298.56C322.276 298.416 319.908 298.416 317.54 298.56ZM347.604 480.41C344.503 478.002 340.997 477.074 337.112 477.61C333.318 478.146 329.929 480.161 326.816 482.294C323.427 484.518 320.274 487.043 317.357 489.868C316.31 490.915 315.08 492.354 315.578 493.937C316.036 495.416 316.991 496.436 318.443 496.999H323.519C327.13 494.5 330.871 492.197 334.731 490.104C337.138 488.848 340.382 486.964 343.234 487.579C345.092 487.985 346.544 489.45 347.879 490.719C349.697 492.55 351.751 494.068 354.041 495.259C356.226 496.266 358.528 496.855 360.948 496.999H365.619C365.632 496.999 365.658 496.999 365.684 496.999C365.697 496.999 365.697 496.999 365.711 496.999H381.881C382.064 490.614 381.828 484.256 381.214 477.911C380.952 477.924 380.743 477.859 380.546 477.688C374.384 472.115 367.634 467.379 360.294 463.481C349.619 457.973 336.641 454.846 325.311 460.315C320.614 462.578 316.48 466.136 312.569 469.538C308.552 473.018 304.091 476.943 301.788 481.849L302.613 485.46C304.431 482.137 306.747 479.219 309.547 476.681C314.793 471.54 320.51 466.15 327.274 463.062C332.14 460.89 337.203 460.302 342.436 461.309C343.562 461.492 343.077 463.193 341.965 463.01C339.323 462.526 336.667 462.46 333.998 462.813C328.333 463.677 323.388 466.974 319.018 470.519C315.852 473.11 312.83 475.857 309.965 478.761C307.27 481.482 304.562 484.505 303.358 488.22C303.345 488.272 303.319 488.312 303.293 488.364L305.282 496.999H307.689C307.113 496.436 306.642 495.795 306.276 495.075C305.91 494.343 305.687 493.584 305.582 492.786C305.478 491.988 305.504 491.19 305.674 490.392C305.844 489.607 306.132 488.861 306.551 488.168C308.526 484.779 312.242 482.529 315.264 480.2C318.94 477.388 322.525 474.418 326.371 471.841C332.677 467.602 341.442 464.789 348.088 470.009C348.978 470.702 347.722 471.945 346.832 471.252C343.758 468.832 339.519 468.491 335.803 469.342C332.284 470.31 329.066 471.906 326.162 474.13C322.917 476.419 319.816 478.905 316.677 481.325C313.903 483.458 310.554 485.486 308.5 488.39C306.498 491.216 306.943 494.945 310.161 496.645C310.305 496.724 310.423 496.842 310.502 496.999H315.368C313.995 495.677 313.471 494.081 313.785 492.21C314.636 488.953 318.286 486.611 320.745 484.648C323.597 482.254 326.659 480.148 329.903 478.303C332.991 476.498 336.327 475.648 339.898 475.739C343.234 475.949 346.217 477.087 348.847 479.154C349.75 479.847 348.494 481.09 347.604 480.41ZM295.496 425.973C295.496 425.973 292.84 429.963 290.838 432.946C290.773 433.063 290.668 433.142 290.564 433.22L301.187 479.258C302.469 477.244 303.947 475.386 305.622 473.685C305.936 473.345 306.289 473.044 306.616 472.704L302.822 455.683L297.419 427.229L296.843 423.971C296.765 423.552 296.621 422.754 296.49 422.074C294.868 413.413 293.232 404.726 291.689 396.052C289.949 386.293 288.261 376.52 286.717 366.734C286.534 365.609 284.833 366.093 285.016 367.205C287.829 385.076 291.087 402.882 294.397 420.661C294.567 421.577 294.789 422.584 294.999 423.578L295.012 423.552C295.169 424.35 295.417 425.567 295.496 425.973ZM309.69 318.825L307.192 305.926C306.851 304.133 306.551 302.302 306.158 300.523C305.582 300.68 305.007 300.81 304.444 300.994C304.654 302.079 304.863 303.152 305.072 304.238C305.805 308.019 306.537 311.813 307.27 315.594C308.356 321.219 309.455 326.845 310.541 332.471C311.862 339.3 313.184 346.129 314.505 352.958C315.957 360.481 317.409 368.003 318.861 375.513L323.27 398.29C324.631 405.341 326.005 412.38 327.365 419.431C328.516 425.41 329.681 431.389 330.832 437.381C331.669 441.672 332.494 445.976 333.331 450.28C333.697 452.151 333.998 454.061 334.417 455.919C335.005 455.853 335.594 455.801 336.183 455.762C335.934 454.493 335.699 453.224 335.45 451.968C334.718 448.174 333.985 444.393 333.252 440.599L329.982 423.735C328.66 416.893 327.339 410.064 326.018 403.235C324.565 395.725 323.113 388.203 321.661 380.68C320.196 373.092 318.717 365.504 317.252 357.916C315.892 350.865 314.531 343.826 313.157 336.775C312.006 330.796 310.842 324.804 309.69 318.825ZM289.085 298.73C284.689 304.133 280.071 309.34 275.204 314.351C272.863 316.758 270.468 319.113 268.022 321.416C266.831 322.541 265.615 323.666 264.398 324.765C263.718 325.393 263.024 325.995 262.344 326.609C262.069 326.858 261.795 327.094 261.52 327.342C261.428 327.421 261.245 327.538 261.075 327.669C261.167 327.774 261.245 327.892 261.337 327.97C261.821 328.493 262.344 329.004 262.854 329.514C263.914 330.574 264.974 331.633 266.02 332.719C268.702 328.14 271.711 323.797 275.061 319.689C280.699 312.729 287.463 307.129 295.352 302.864C299.564 300.666 303.986 299.057 308.631 298.037C304.457 295.263 300.323 292.424 296.189 289.599C293.887 292.686 291.519 295.734 289.085 298.73ZM274.956 294.217C271.659 299.62 267.486 304.238 262.436 308.058C260.813 311.355 258.602 314.207 255.803 316.601C257.752 319.257 259.819 321.821 262.004 324.294C262.043 324.346 262.069 324.398 262.109 324.464C262.632 323.98 263.155 323.509 263.692 323.025C265.314 321.546 266.91 320.055 268.493 318.524C271.594 315.555 274.603 312.493 277.533 309.34C282.792 303.689 287.738 297.736 292.447 291.613C292.16 291.417 291.872 291.208 291.571 290.998C287.921 288.408 284.192 285.818 280.751 282.926C279.234 286.903 277.311 290.671 274.956 294.217ZM259.073 310.295C259.885 309.118 260.604 307.875 261.219 306.593C261.782 305.468 262.174 304.303 262.41 303.074C261.023 303.532 260.002 304.421 259.374 305.756C258.432 307.208 258.328 308.725 259.073 310.295ZM204.976 295.316C205.474 293.432 205.945 291.522 206.311 289.599C207.462 283.737 208.234 277.732 210.576 272.185C210.131 272.669 209.66 273.127 209.241 273.611C207.318 275.849 205.539 278.203 203.917 280.663C202.399 282.939 200.855 285.674 201.261 288.526C201.64 291.103 203.407 293.249 204.976 295.316ZM198.33 324.464C201.039 323.797 202.543 320.722 203.341 318.289C203.773 316.994 204.035 315.149 202.87 314.129C202.098 313.461 201.209 313.239 200.214 313.488C199.599 314.822 198.985 316.169 198.435 317.543C197.598 319.597 196.839 321.834 197.742 323.993C197.833 324.202 197.938 324.398 198.056 324.595C198.134 324.529 198.226 324.49 198.33 324.464ZM240.64 317.177C240.247 316.719 239.933 316.209 239.672 315.659C238.01 311.97 238.913 307.142 239.593 303.322C240.077 300.601 240.705 297.906 241.503 295.263C241.673 294.714 242.027 294.518 242.576 294.675C243.126 294.819 243.335 295.172 243.204 295.734C242.445 298.259 241.83 300.81 241.359 303.414C240.745 306.802 240.038 310.753 240.993 314.142C242.105 318.053 247.351 319.466 250.766 317.818C253.644 316.366 256.051 314.351 258.001 311.774C257.909 311.708 257.818 311.617 257.752 311.525C256.3 309.537 256.745 306.894 257.857 304.866C258.812 302.93 260.342 301.739 262.436 301.294C262.239 300.039 261.389 299.437 259.911 299.437C258.328 300.771 256.575 301.844 254.665 302.642C254.638 302.72 254.599 302.786 254.573 302.851C254.495 303.074 254.403 303.283 254.324 303.505C254.154 303.976 253.984 304.46 253.827 304.945C253.513 305.834 253.265 306.75 253.068 307.666C253.003 307.901 252.859 308.084 252.65 308.202C252.441 308.32 252.218 308.346 251.983 308.281C251.747 308.215 251.564 308.084 251.446 307.875C251.328 307.666 251.302 307.443 251.355 307.208C251.564 306.253 251.826 305.311 252.14 304.395C252.467 303.427 252.82 302.472 253.239 301.53C253.33 301.321 253.5 301.19 253.736 301.151C253.749 301.137 253.749 301.137 253.762 301.124C257.661 299.672 260.97 296.375 263.574 293.235C266.609 289.599 269.304 285.098 269.749 280.284C269.854 279.172 271.62 279.159 271.515 280.284C271.031 285.504 268.284 290.253 265.026 294.243C263.966 295.538 262.841 296.768 261.638 297.919C262.344 298.115 262.933 298.495 263.417 299.057C263.888 299.62 264.163 300.261 264.241 300.994C264.372 302.276 264.215 303.532 263.796 304.761C267.643 301.347 270.913 297.448 273.595 293.065C275.963 289.52 277.873 285.726 279.325 281.71C275.257 277.366 272.326 272.055 268.061 267.868C263.482 263.368 257.19 260.934 250.975 259.678C245.441 258.645 239.855 258.318 234.242 258.671C229.507 258.92 224.718 259.757 220.663 262.36C218.87 263.498 217.3 264.898 215.966 266.547C215.94 266.586 215.914 266.625 215.887 266.665C215.861 266.691 215.835 266.717 215.809 266.743C210.445 273.441 209.49 282.966 207.776 291.273C206.416 297.5 204.506 303.558 202.007 309.432C201.706 310.165 201.379 310.884 201.052 311.604C202.007 311.682 202.896 311.996 203.694 312.546C204.44 313.16 204.963 313.932 205.264 314.861C205.565 315.79 205.591 316.719 205.343 317.661C204.911 319.636 204.113 321.442 202.936 323.09C202.02 324.477 200.777 325.445 199.22 326.008C201.614 328.022 205.552 327.394 207.933 325.236C211.845 321.677 214.069 316.235 215.129 311.146C215.155 311.054 215.194 310.963 215.246 310.884C215.233 310.74 215.207 310.596 215.194 310.465C214.945 307.548 215.063 304.644 215.56 301.765C216.084 298.076 216.921 294.452 218.059 290.907C218.399 289.821 220.113 290.292 219.76 291.365C219.394 292.477 219.093 293.602 218.792 294.727C217.392 299.502 216.751 304.382 216.869 309.353C216.999 311.538 217.366 314.115 219.053 315.672C220.257 316.693 221.644 317.347 223.201 317.635C224.744 317.923 226.275 317.805 227.767 317.281C225.922 314.089 226.092 309.615 226.471 305.926C226.916 301.595 227.74 297.33 228.957 293.157C229.127 292.608 229.48 292.411 230.03 292.568C230.579 292.712 230.789 293.065 230.658 293.615C230.265 294.949 229.938 296.31 229.637 297.657C228.499 302.747 227.348 308.424 228.277 313.631C228.408 314.861 228.852 315.973 229.611 316.954C230.37 317.949 231.325 318.655 232.489 319.087C233.928 319.545 235.368 319.61 236.833 319.257C238.298 318.917 239.567 318.223 240.64 317.177ZM250.91 360.258C254.115 354.096 257.373 347.96 260.761 341.903C262.187 339.352 263.613 336.801 265.091 334.289C263.679 332.811 262.213 331.385 260.774 329.932C260.172 329.318 258.589 328.14 259.152 327.12C259.479 326.727 259.845 326.387 260.264 326.099C260.46 325.929 260.643 325.759 260.827 325.589C260.8 325.576 260.774 325.563 260.748 325.537C258.524 323.012 256.418 320.382 254.416 317.674C253.448 318.38 252.427 318.982 251.342 319.492C249.785 320.147 248.162 320.382 246.488 320.186C244.813 319.99 243.283 319.388 241.922 318.394C240.705 319.492 239.332 320.291 237.775 320.801C237.775 320.801 237.775 320.814 237.788 320.814C240.418 333.831 246.187 349.635 250.91 360.258ZM149.283 383.493H194.615C187.642 376.638 181.598 369.05 176.469 360.742C172.047 353.547 168.345 345.985 165.375 338.083C164.407 340.673 163.439 343.264 162.484 345.854C157.905 358.335 153.483 370.868 149.283 383.48V383.493ZM4.54952 487.553C5.75313 486.637 7.02215 485.813 8.35659 485.08C9.14155 484.648 9.95268 484.256 10.7638 483.864C10.7246 483.589 10.8031 483.353 10.9993 483.17C11.0778 483.105 11.1432 483.039 11.1955 482.974L11.2348 482.948C11.261 482.882 11.3002 482.83 11.3394 482.765C11.3525 482.738 11.3656 482.712 11.3787 482.686C11.431 482.555 11.4703 482.411 11.4964 482.281V482.32C11.4964 482.307 11.4964 482.281 11.4964 482.267C11.4964 482.254 11.4964 482.241 11.4964 482.241L11.5095 482.215V482.189C11.5095 482.124 11.5095 482.058 11.5095 481.98C11.5095 481.914 11.5095 481.862 11.4964 481.796C11.4964 481.77 11.4834 481.731 11.4834 481.705C11.4572 481.626 11.4441 481.548 11.4179 481.469C11.4049 481.456 11.4049 481.43 11.3918 481.404C11.3264 481.286 11.2609 481.182 11.1955 481.077C11.1694 481.051 11.1432 481.025 11.117 480.998C11.0778 480.959 11.0255 480.92 10.9731 480.868C10.8685 480.933 10.7638 480.985 10.6591 481.038C8.19959 482.477 5.21674 484.596 4.54952 487.553ZM2.57404 492.577C4.07855 492.341 5.42607 491.739 6.60351 490.771C7.30998 490.261 7.85945 489.62 8.26501 488.848C8.3435 488.691 8.38276 488.521 8.40892 488.351C8.43509 488.207 8.422 488.076 8.36967 487.945C8.33042 487.801 8.36967 487.919 8.30426 487.788C8.30426 487.788 8.17343 487.579 8.22576 487.644C8.22576 487.644 8.04261 487.474 8.1211 487.54C8.00336 487.448 8.1211 487.514 7.97719 487.474C7.92486 487.448 7.88561 487.422 7.83328 487.396C5.54381 488.573 3.79073 490.3 2.57404 492.577ZM6.73433 499.445C7.72862 499.288 8.69674 499.026 9.63869 498.647C10.6853 498.32 11.6273 497.797 12.4646 497.09C13.2495 496.436 13.7336 495.612 13.9167 494.618C14.0083 494.003 13.8252 492.511 12.8832 492.721C12.6608 492.773 12.4515 492.747 12.2552 492.629C9.92651 493.793 8.09493 495.494 6.7605 497.731C6.48576 498.228 6.34185 498.778 6.32877 499.353C6.39418 499.353 6.44652 499.34 6.51193 499.353C6.59043 499.367 6.66892 499.406 6.73433 499.445ZM15.7876 502.546C17.2005 502.663 18.5873 502.559 19.974 502.232C21.1646 501.983 22.2373 501.473 23.1793 500.701C24.0297 499.981 24.396 499.079 24.2913 497.98C24.2259 497.535 24.0297 497.169 23.6895 496.868C23.3494 496.567 22.9569 496.423 22.5121 496.41C22.4467 496.41 22.3812 496.397 22.3158 496.384C21.2692 496.802 20.2749 497.313 19.3199 497.888C17.6322 498.935 15.6567 500.505 15.4474 502.598C15.5521 502.559 15.6698 502.533 15.7876 502.546ZM62.4928 510.173C61.7863 509.61 60.9752 509.257 60.0856 509.113C58.9997 508.891 57.9139 508.851 56.828 508.969C55.8468 509.074 54.8918 509.309 53.989 509.702C53.5966 509.885 53.2433 510.094 52.9163 510.356C52.7724 510.474 52.6546 510.591 52.5369 510.722C54.8263 511.612 57.1943 512.096 59.6408 512.174C60.8313 512.266 62.0218 512.305 63.2124 512.331C63.3824 511.468 63.1469 510.762 62.4928 510.173ZM118.905 483.981C113.555 485.002 108.178 485.08 102.801 484.23C95.906 483.327 89.2469 481.548 82.8233 478.879C78.7154 477.322 74.9606 475.177 71.546 472.416H71.533C64.7038 472.128 57.8615 471.932 51.0324 472.194C41.9137 472.39 32.939 473.581 24.0951 475.805C20.1179 476.812 16.2847 478.225 12.6085 480.03C13.2364 480.868 13.4196 481.796 13.171 482.817C15.5913 481.836 18.077 481.025 20.6151 480.397C29.145 478.225 37.9497 477.636 46.6758 476.786C47.814 476.668 47.8009 478.447 46.6758 478.552C42.3193 478.971 37.9497 479.337 33.6062 479.86C25.8089 480.815 17.8023 482.267 10.7246 485.826C10.319 486.035 9.90035 486.245 9.46862 486.467C10.005 487.056 10.2405 487.736 10.1489 488.521C9.91343 489.777 9.29855 490.824 8.29118 491.635C6.52501 493.283 4.44487 494.225 2.02456 494.434C1.9199 495.18 1.98531 495.9 2.24697 496.593C2.71795 497.64 3.51599 498.294 4.62802 498.582C5.22983 496.436 6.42035 494.696 8.21268 493.375C9.96576 491.896 11.902 490.706 14.0083 489.803C18.0378 488.142 22.185 486.938 26.463 486.192C35.1107 484.465 43.85 483.419 52.6546 483.013C53.7928 482.961 53.7928 484.727 52.6546 484.779C48.4027 484.962 44.1639 485.368 39.9382 485.878C32.1933 486.794 24.1997 487.906 16.8211 490.575C16.0754 490.837 15.2904 491.164 14.5055 491.504C15.1596 492.04 15.539 492.734 15.6567 493.571C15.8268 495.115 15.3951 496.475 14.3746 497.64C13.3804 498.778 12.1637 499.602 10.7376 500.112C9.46862 500.675 8.13418 501.041 6.74742 501.211C7.16606 502.035 7.7417 502.716 8.48742 503.252C10.2013 504.299 12.0721 504.874 14.0737 504.966C13.7336 504.207 13.6028 503.435 13.6682 502.611C14.0606 497.417 20.759 494.788 24.9847 493.571C30.6757 492.132 36.4451 491.19 42.2931 490.719C48.1934 490.091 54.0937 489.816 60.0202 489.895C60.5958 489.921 60.8705 490.209 60.8705 490.771C60.8705 491.347 60.5958 491.635 60.0202 491.661C54.0937 491.582 48.1934 491.857 42.2931 492.485C36.9292 492.956 31.6176 493.793 26.3715 495.023C25.8351 495.167 25.2987 495.324 24.7623 495.494C25.2464 495.9 25.6127 496.41 25.8482 497.012C26.3584 498.568 26.0836 499.981 25.0501 501.25C24.0035 502.506 22.6821 503.331 21.0991 503.749C19.3591 504.273 17.593 504.456 15.7876 504.312C15.7483 504.299 15.7221 504.286 15.6829 504.286C16.5071 506.117 19.1237 506.078 20.9421 506.026C23.925 505.934 26.9079 505.842 29.9038 505.738L47.3692 505.201C47.5916 505.175 47.7878 505.254 47.9579 505.424C48.9391 503.357 50.4175 501.734 52.393 500.557C61.093 494.853 71.86 499.681 81.3188 497.025C81.8683 496.894 82.2215 497.103 82.3654 497.653C82.5224 498.202 82.3262 498.555 81.7767 498.725C76.3343 500.269 70.7218 499.458 65.1486 499.38C60.4781 499.301 55.8599 499.903 52.1182 502.925C50.9408 503.88 49.5802 505.215 49.397 506.824C49.3447 508.158 49.8942 509.165 51.0324 509.872C51.6996 508.969 52.563 508.328 53.6227 507.949C57.3382 506.431 65.5018 506.876 64.9654 512.345C66.2737 512.345 67.582 512.331 68.8902 512.305C73.286 512.214 77.6687 512.24 82.0645 511.991C87.3761 511.704 92.6615 511.141 97.9208 510.304C102.225 509.754 106.32 508.498 110.179 506.523C112.102 505.555 113.725 504.233 115.085 502.572C116.433 500.897 117.388 499.039 117.95 496.959C119.036 492.76 118.932 488.312 118.905 483.981ZM122.019 481.234L117.362 461.06C114.497 461.191 111.631 461.126 108.766 460.851C101.388 460.262 94.1529 458.836 87.0883 456.586C82.5747 455.199 78.2836 453.276 74.228 450.83L73.9271 452.046C72.6188 457.371 71.2975 462.709 69.9761 468.033C71.8077 470.545 74.1102 472.534 76.8707 473.973C84.0138 478.016 91.6541 480.684 99.7523 481.993C106.869 483.249 115.111 483.929 122.019 481.234ZM307.728 515.445L280.307 396.654C279.888 395.071 279.221 393.58 278.331 392.206C277.428 390.832 276.343 389.629 275.061 388.608C273.778 387.588 272.365 386.777 270.835 386.214C269.291 385.639 267.708 385.312 266.06 385.246H112.887C111.501 385.194 110.179 385.455 108.923 386.005C107.667 386.567 106.581 387.379 105.705 388.438C104.868 389.55 104.305 390.793 104.057 392.167C103.795 393.541 103.847 394.914 104.214 396.262L131.726 515.445H307.728ZM384.811 498.765H305.726L309.533 515.445H384.811V498.765ZM449.976 437.198C446.3 438.519 442.624 439.801 438.934 441.07C433.387 421.969 427.84 402.882 422.293 383.781C420.71 378.338 419.14 372.896 417.557 367.441C417.387 366.904 417.021 366.708 416.471 366.852C415.922 367.009 415.713 367.362 415.857 367.912C421.482 387.313 427.121 406.702 432.746 426.103C434.251 431.284 435.755 436.465 437.26 441.659C423.209 446.486 409.04 451.026 394.977 455.814C395.264 452.007 395.539 448.2 395.827 444.393C396.638 433.626 397.436 422.872 398.234 412.105C399.307 397.635 400.367 383.153 401.413 368.683C402.512 353.442 403.598 338.188 404.671 322.946C405.587 309.746 406.476 296.545 407.327 283.332C407.366 282.743 407.405 282.154 407.444 281.553C406.856 281.5 406.267 281.448 405.678 281.409C404.919 293.523 404.108 305.638 403.258 317.752C402.211 332.902 401.138 348.052 400.04 363.202C398.98 377.933 397.907 392.651 396.821 407.369C395.984 418.712 395.134 430.067 394.283 441.41C394.021 444.942 393.76 448.475 393.498 452.007C393.38 453.472 393.21 454.964 393.158 456.442C390.712 457.279 388.265 458.117 385.819 458.967C385.779 459.608 385.74 460.249 385.701 460.877C402.185 455.069 418.852 449.796 435.389 444.158C440.426 442.444 445.437 440.691 450.447 438.898C451.507 438.519 451.049 436.805 449.976 437.198ZM189.016 175.871C188.885 175.661 188.872 175.439 188.976 175.203C190.677 170.664 195.962 169.591 200.345 170.14C203.864 166.137 210.393 166.255 215.116 167.472C215.469 167.524 215.73 167.694 215.927 167.995C215.94 168.034 215.953 168.073 215.966 168.099C215.966 168.126 215.979 168.139 215.992 168.152C217.287 171.854 217.379 175.596 216.28 179.364C215.835 180.907 215.129 182.333 214.187 183.642C213.232 184.937 212.08 186.036 210.746 186.925C209.398 187.828 207.946 188.456 206.376 188.836C204.806 189.215 203.223 189.307 201.614 189.11C194.72 188.247 190.258 182.386 189.016 175.871ZM204.767 182.451C202.53 182.935 200.28 182.922 198.043 182.412C195.792 181.889 193.765 180.921 191.959 179.508C192.77 181.444 193.961 183.118 195.518 184.518C196.577 185.434 197.755 186.141 199.05 186.638C200.358 187.148 201.706 187.41 203.093 187.436C204.492 187.462 205.853 187.253 207.174 186.795C208.496 186.35 209.699 185.683 210.785 184.806C212.394 183.328 213.598 181.562 214.37 179.508C215.142 177.454 215.416 175.334 215.181 173.149C214.37 175.491 213.022 177.493 211.178 179.141C209.333 180.803 207.187 181.902 204.767 182.451ZM214.017 170.821C210.968 173.463 207.488 175.321 203.59 176.368C199.704 177.414 195.766 177.571 191.802 176.813C194.746 180.397 199.704 181.627 204.309 180.75C206.756 180.188 208.862 179.01 210.615 177.205C212.381 175.413 213.506 173.28 214.017 170.821ZM191.07 174.837C198.762 176.708 207.842 174.549 213.467 168.898C210.393 168.113 207.371 168.296 204.414 169.447C203.564 169.813 202.792 170.297 202.098 170.899C201.902 171.069 201.719 171.252 201.549 171.422C201.47 171.501 201.196 171.854 201.457 171.501C201.222 171.867 200.895 171.998 200.463 171.907C200.371 171.893 200.594 171.92 200.28 171.88C199.953 171.854 199.626 171.828 199.286 171.802C198.344 171.75 197.389 171.776 196.447 171.893C194.183 172.011 192.391 173.005 191.07 174.837ZM251.158 127.124C252.689 123.697 255.057 121.015 258.249 119.052C258.733 118.752 258.825 118.346 258.537 117.862C258.262 117.365 257.857 117.26 257.36 117.522C253.893 119.641 251.315 122.546 249.628 126.235C249.353 126.732 249.458 127.138 249.955 127.438C250.164 127.556 250.387 127.595 250.622 127.53C250.858 127.465 251.028 127.334 251.158 127.124ZM172.688 135.537C170.347 135.929 171.629 140.717 172.688 141.738C172.989 142.039 173.356 142.209 173.787 142.235C174.219 142.248 174.585 142.117 174.912 141.842C175.396 141.175 175.567 140.43 175.436 139.618C175.41 138.912 175.292 138.232 175.056 137.564C174.729 136.636 173.813 135.34 172.688 135.537ZM289.02 266.952C287.11 259.417 285.213 251.868 283.303 244.319L282.007 239.152C281.837 238.615 281.471 238.419 280.935 238.576C280.385 238.72 280.176 239.073 280.307 239.623C281.497 244.332 282.675 249.042 283.865 253.752C285.762 261.301 287.672 268.836 289.569 276.385C290.014 278.112 293.075 288.486 293.52 290.213C293.926 289.664 294.344 289.128 294.763 288.578C293.193 283.908 290.197 271.662 289.02 266.952ZM212.996 136.335C213.48 135.667 213.65 134.922 213.519 134.111C213.493 133.404 213.376 132.724 213.14 132.057C212.813 131.128 211.897 129.833 210.772 130.029C208.43 130.434 209.712 135.21 210.772 136.23C211.073 136.544 211.439 136.714 211.871 136.727C212.303 136.753 212.669 136.623 212.996 136.335ZM309.847 220.051C309.403 219.698 308.892 219.606 308.343 219.737C307.793 219.868 307.401 220.195 307.165 220.705C306.42 222.275 306.694 228.528 309.442 227.39C310.358 226.854 310.789 226.043 310.724 224.983C310.816 224.002 310.802 223.034 310.685 222.053C310.632 221.294 310.358 220.613 309.847 220.051ZM376.713 224.224C378.872 221.451 381.017 218.664 383.176 215.891C383.568 215.472 383.568 215.053 383.176 214.635C383.006 214.465 382.797 214.386 382.548 214.386C382.312 214.386 382.103 214.465 381.92 214.635C379.774 217.421 377.616 220.195 375.47 222.968C375.078 223.387 375.078 223.806 375.47 224.224C375.64 224.394 375.85 224.473 376.085 224.473C376.334 224.473 376.543 224.394 376.713 224.224ZM323.545 248.859C324.094 248.689 324.291 248.323 324.134 247.773C323.99 247.224 323.637 247.027 323.087 247.158C321.622 247.577 320.143 247.773 318.626 247.734C316.323 247.616 315.643 245.614 315.643 243.56C315.774 241.127 316.258 238.759 317.082 236.47C317.88 233.879 318.574 231.25 319.332 228.633C320.497 224.695 321.766 220.784 323.035 216.872C323.388 215.786 321.687 215.328 321.334 216.401C319.136 223.165 317.174 229.981 315.146 236.797C314.256 239.269 313.838 241.834 313.916 244.476C314.112 246.609 315.159 248.885 317.448 249.356C319.529 249.657 321.556 249.5 323.545 248.859ZM340.134 255.989C338.799 257.206 337.334 258.187 335.712 258.959C334.09 259.731 332.389 260.254 330.61 260.516C328.83 260.777 327.064 260.777 325.285 260.516C323.506 260.254 321.805 259.744 320.183 258.972C319.175 258.462 318.273 259.992 319.293 260.503C321.085 261.366 322.969 261.942 324.932 262.243C326.894 262.53 328.87 262.543 330.832 262.243C332.808 261.955 334.678 261.392 336.484 260.529C338.276 259.678 339.911 258.579 341.377 257.245C342.227 256.486 340.984 255.23 340.134 255.989ZM11.4964 482.281V482.241C11.5095 482.215 11.5095 482.202 11.5095 482.189C11.4964 482.163 11.4964 482.176 11.4964 482.281Z" fill="black"/>
    </g>
</svg>
